<?xml version="1.0" encoding="utf-8"?>
<!-- Generator: Adobe Illustrator 18.1.0, SVG Export Plug-In . SVG Version: 6.00 Build 0)  -->
<!DOCTYPE svg PUBLIC "-//W3C//DTD SVG 1.1//EN" "http://www.w3.org/Graphics/SVG/1.1/DTD/svg11.dtd">
<svg version="1.1" id="Layer_1" xmlns="http://www.w3.org/2000/svg" xmlns:xlink="http://www.w3.org/1999/xlink" x="0px" y="0px"
	 viewBox="0 0 40 40" enable-background="new 0 0 40 40" xml:space="preserve">
<rect fill="#F8BE46" width="40" height="40"/>
<g>
	<path fill="#FFFFFF" d="M9.3,19.7c0-2.5,1.8-4.1,4.2-4.1c1.6,0,2.6,0.8,3.2,1.8L15.5,18c-0.4-0.7-1.2-1.2-2-1.2
		c-1.6,0-2.8,1.2-2.8,2.9c0,1.7,1.2,2.9,2.8,2.9c0.9,0,1.6-0.5,2-1.2l1.2,0.6c-0.6,1-1.6,1.8-3.2,1.8C11.1,23.9,9.3,22.2,9.3,19.7z"
		/>
	<path fill="#FFFFFF" d="M17.3,22.6l0.8-1.1c0.5,0.6,1.4,1.1,2.5,1.1c1.2,0,1.6-0.6,1.6-1.1c0-1.7-4.7-0.6-4.7-3.6
		c0-1.3,1.2-2.4,2.9-2.4c1.2,0,2.3,0.4,3,1.1l-0.8,1c-0.6-0.6-1.5-0.9-2.3-0.9c-0.8,0-1.3,0.4-1.3,1c0,1.5,4.7,0.6,4.7,3.6
		c0,1.3-0.9,2.5-3.1,2.5C19.1,23.9,18,23.4,17.3,22.6z"/>
	<path fill="#FFFFFF" d="M24.4,22.6l0.8-1.1c0.5,0.6,1.4,1.1,2.5,1.1c1.2,0,1.6-0.6,1.6-1.1c0-1.7-4.7-0.6-4.7-3.6
		c0-1.3,1.2-2.4,2.9-2.4c1.2,0,2.3,0.4,3,1.1l-0.8,1c-0.6-0.6-1.5-0.9-2.3-0.9c-0.8,0-1.3,0.4-1.3,1c0,1.5,4.7,0.6,4.7,3.6
		c0,1.3-0.9,2.5-3.1,2.5C26.2,23.9,25.1,23.4,24.4,22.6z"/>
</g>
</svg>
