<?xml version="1.0" encoding="utf-8"?>
<!-- Generator: Adobe Illustrator 18.1.0, SVG Export Plug-In . SVG Version: 6.00 Build 0)  -->
<!DOCTYPE svg PUBLIC "-//W3C//DTD SVG 1.1//EN" "http://www.w3.org/Graphics/SVG/1.1/DTD/svg11.dtd">
<svg version="1.1" id="Layer_1" xmlns="http://www.w3.org/2000/svg" xmlns:xlink="http://www.w3.org/1999/xlink" x="0px" y="0px"
	 viewBox="0 0 40 40" enable-background="new 0 0 40 40" xml:space="preserve">
<rect fill="#80BC4B" width="40" height="40"/>
<g>
	<path fill="#FFFFFF" d="M16.8,23.7c-0.1,0-0.1,0-0.2,0l-6.3-3.1C10.1,20.4,10,20.2,10,20c0-0.2,0.1-0.4,0.3-0.5l6.3-3.1
		c0.1,0,0.1,0,0.2,0c0.2,0,0.5,0.2,0.5,0.4c0,0.2-0.1,0.3-0.3,0.4L11.1,20l5.9,2.8c0.1,0.1,0.2,0.2,0.2,0.4
		C17.3,23.5,17,23.7,16.8,23.7z"/>
	<path fill="#FFFFFF" d="M22.2,14.7l-3.6,10.8c-0.1,0.2-0.2,0.3-0.4,0.3c-0.3,0-0.5-0.2-0.5-0.4c0,0,0-0.1,0-0.1l3.6-10.8
		c0.1-0.2,0.2-0.3,0.4-0.3c0.3,0,0.4,0.2,0.4,0.4C22.3,14.6,22.3,14.7,22.2,14.7z"/>
	<path fill="#FFFFFF" d="M29.7,20.5l-6.3,3.1c-0.1,0-0.1,0-0.2,0c-0.2,0-0.4-0.2-0.4-0.5c0-0.1,0.1-0.3,0.2-0.4l5.9-2.8L23,17.1
		c-0.2-0.1-0.3-0.2-0.3-0.4c0-0.3,0.2-0.5,0.5-0.5c0.1,0,0.1,0,0.2,0l6.3,3.1c0.2,0.1,0.3,0.3,0.3,0.5C30,20.2,29.9,20.4,29.7,20.5z
		"/>
</g>
</svg>
