<?xml version="1.0" encoding="utf-8"?>
<!-- Generator: Adobe Illustrator 18.1.0, SVG Export Plug-In . SVG Version: 6.00 Build 0)  -->
<!DOCTYPE svg PUBLIC "-//W3C//DTD SVG 1.1//EN" "http://www.w3.org/Graphics/SVG/1.1/DTD/svg11.dtd">
<svg version="1.1" id="Layer_1" xmlns="http://www.w3.org/2000/svg" xmlns:xlink="http://www.w3.org/1999/xlink" x="0px" y="0px"
	 viewBox="0 0 40 40" enable-background="new 0 0 40 40" xml:space="preserve">
<rect fill="#9B64B2" width="40" height="40"/>
<g>
	<path fill="#FFFFFF" d="M15.6,23.7v-6.2l-2.4,6.2h-0.6l-2.5-6.2v6.2H8.7v-8h2l2.2,5.5l2.2-5.5h2v8H15.6z"/>
	<path fill="#FFFFFF" d="M18.7,23.7v-8h3.5c1.7,0,2.6,1.1,2.6,2.5c0,1.4-0.9,2.5-2.6,2.5h-2.1v3H18.7z M23.4,18.2
		c0-0.8-0.6-1.3-1.4-1.3h-1.9v2.5h1.9C22.9,19.5,23.4,19,23.4,18.2z"/>
	<path fill="#FFFFFF" d="M29.3,23.7v-1.8h-3.8v-1.1l3.3-5.1h1.9v5h1.1v1.2h-1.1v1.8H29.3z M29.3,17l-2.4,3.7h2.4V17z"/>
</g>
</svg>
