<?xml version="1.0" encoding="utf-8"?>
<!-- Generator: Adobe Illustrator 18.1.0, SVG Export Plug-In . SVG Version: 6.00 Build 0)  -->
<!DOCTYPE svg PUBLIC "-//W3C//DTD SVG 1.1//EN" "http://www.w3.org/Graphics/SVG/1.1/DTD/svg11.dtd">
<svg version="1.1" id="Layer_1" xmlns="http://www.w3.org/2000/svg" xmlns:xlink="http://www.w3.org/1999/xlink" x="0px" y="0px"
	 viewBox="0 0 40 40" enable-background="new 0 0 40 40" xml:space="preserve">
<rect fill="#0C77C6" width="40" height="40"/>
<g>
	<path fill="#FFFFFF" d="M9.4,23.7v-8h3.5c1.7,0,2.6,1.1,2.6,2.5c0,1.4-0.9,2.5-2.6,2.5h-2.1v3H9.4z M14.1,18.2
		c0-0.8-0.6-1.3-1.4-1.3h-1.9v2.5h1.9C13.5,19.5,14.1,19,14.1,18.2z"/>
	<path fill="#FFFFFF" d="M16.2,22.6l0.8-1.1c0.5,0.6,1.4,1.1,2.5,1.1c1.2,0,1.6-0.6,1.6-1.1c0-1.7-4.7-0.6-4.7-3.6
		c0-1.3,1.2-2.4,2.9-2.4c1.2,0,2.3,0.4,3,1.1l-0.8,1c-0.6-0.6-1.5-0.9-2.3-0.9c-0.8,0-1.3,0.4-1.3,1c0,1.5,4.7,0.6,4.7,3.6
		c0,1.3-0.9,2.5-3.1,2.5C18,23.9,16.9,23.4,16.2,22.6z"/>
	<path fill="#FFFFFF" d="M23.8,23.7v-8h3c2.5,0,4.2,1.7,4.2,4c0,2.4-1.7,4-4.2,4H23.8z M29.5,19.7c0-1.5-1-2.8-2.7-2.8h-1.6v5.5h1.6
		C28.5,22.5,29.5,21.3,29.5,19.7z"/>
</g>
</svg>
