<?xml version="1.0" encoding="utf-8"?>
<!-- Generator: Adobe Illustrator 18.1.0, SVG Export Plug-In . SVG Version: 6.00 Build 0)  -->
<!DOCTYPE svg PUBLIC "-//W3C//DTD SVG 1.1//EN" "http://www.w3.org/Graphics/SVG/1.1/DTD/svg11.dtd">
<svg version="1.1" id="Layer_1" xmlns="http://www.w3.org/2000/svg" xmlns:xlink="http://www.w3.org/1999/xlink" x="0px" y="0px"
	 viewBox="0 0 40 40" enable-background="new 0 0 40 40" xml:space="preserve">
<rect fill="#8E4C9E" width="40" height="40"/>
<g>
	<path fill="#FFFFFF" d="M25,20c0,0.2-0.1,0.5-0.3,0.7c-0.2,0.1-3.6,3.1-8.2,4.9c-0.1,0.1-0.2,0.1-0.4,0.1s-0.3-0.1-0.5-0.2
		c-0.2-0.2-0.4-0.4-0.5-0.7c0-0.1-0.2-2.4-0.2-4.8s0.2-4.7,0.2-4.8c0-0.3,0.2-0.5,0.5-0.7c0.2-0.1,0.3-0.2,0.5-0.2
		c0.1,0,0.2,0,0.4,0.1c4.5,1.8,8,4.8,8.2,4.9C24.9,19.5,25,19.8,25,20z"/>
</g>
</svg>
