<svg xmlns="http://www.w3.org/2000/svg" xmlns:xlink="http://www.w3.org/1999/xlink" viewBox="0 0 24 24">
<path fill-rule="evenodd" clip-rule="evenodd" d="M20.8,8.4c-1.1-1.4-2.7-2.2-4.2-2.2c-2,0-2.8,0.9-4.2,0.9c-1.4,0-2.5-0.9-4.2-0.9
	c-1.7,0-3.5,1-4.6,2.8C1.9,11.4,2.2,16,4.8,20c0.9,1.4,2.2,3,3.8,3c1.4,0,1.8-0.9,3.8-0.9c2,0,2.3,0.9,3.8,0.9
	c1.6,0,2.9-1.8,3.9-3.2c0.7-1,0.9-1.5,1.4-2.7C17.7,15.7,17.1,10.4,20.8,8.4z M15.1,4.6c0.7-0.9,1.3-2.2,1.1-3.6
	c-1.2,0.1-2.6,0.8-3.4,1.8c-0.7,0.9-1.3,2.2-1.1,3.5C13,6.3,14.3,5.6,15.1,4.6z"/>
</svg>
