<svg xmlns="http://www.w3.org/2000/svg" viewBox="0 0 24 24">
	<polygon points="10.5,4.3 12,3.1 13.5,4.3 14.8,4.3 12,2 9.2,4.3 	"/>
	<path d="M11.1,7.3c-0.2,0.1-0.3,0.1-0.4,0.2c-0.1,0.1-0.2,0.2-0.2,0.3c0,0.1-0.1,0.3-0.1,0.4c0,0.2,0,0.3,0.1,0.4
		c0.1,0.1,0.1,0.2,0.2,0.3C10.8,9,10.9,9.1,11,9.1c0.1,0,0.3,0.1,0.5,0.1l0.1,0l0-2.1C11.4,7.2,11.2,7.3,11.1,7.3z"/>
	<path d="M12.6,10.2l-0.3-0.1l0,2.3c0.1,0,0.3,0,0.4-0.1c0.2,0,0.4-0.1,0.5-0.2c0.1-0.1,0.2-0.2,0.3-0.4c0.1-0.1,0.1-0.3,0.1-0.5
		c0-0.3-0.1-0.5-0.3-0.6C13.3,10.5,13,10.3,12.6,10.2z"/>
	<path d="M10.3,15.5l1.7-1.1l1.7,1.1l4.2-3V5.1H6.2v7.4L10.3,15.5z M11.6,10L11.4,10c-0.2,0-0.4-0.1-0.6-0.2
		c-0.2-0.1-0.4-0.2-0.5-0.3C10.1,9.4,9.9,9.2,9.8,9C9.7,8.8,9.7,8.6,9.7,8.3c0-0.1,0-0.3,0-0.4c0-0.2,0.1-0.4,0.3-0.6
		c0.1-0.2,0.4-0.4,0.6-0.5c0.2-0.1,0.5-0.2,0.9-0.3l0-0.4l0.7,0l0,0.4c0.5,0,1,0.2,1.3,0.5c0.4,0.3,0.6,0.9,0.7,1.6l0,0.2l-0.7,0
		l0-0.2c0-0.5-0.2-0.8-0.4-1c-0.2-0.2-0.5-0.3-0.8-0.3l0,2.2l0.5,0.1c0.3,0.1,0.6,0.2,0.8,0.3c0.2,0.1,0.4,0.2,0.5,0.4
		c0.1,0.2,0.2,0.3,0.3,0.5c0.1,0.2,0.1,0.4,0.1,0.6c0,0.4-0.1,0.7-0.2,0.9c-0.1,0.2-0.3,0.4-0.5,0.6c-0.2,0.1-0.5,0.3-0.7,0.3
		c-0.2,0-0.4,0.1-0.6,0.1l0,0.8l-0.7,0l0-0.8c-0.3,0-0.5-0.1-0.7-0.2c-0.3-0.1-0.5-0.2-0.7-0.4c-0.2-0.2-0.4-0.4-0.5-0.7
		c-0.1-0.3-0.2-0.6-0.2-1l0-0.2l0.7,0l0,0.2c0,0.5,0.1,0.9,0.4,1.1c0.2,0.2,0.5,0.4,1,0.4L11.6,10z"/>
	<path d="M18.7,7.3v1.1l2.5,2v0.1l-6.8,5.4l6.5,4.3l0.2,0.6h-0.1L12,15.5l-9.1,5.4H2.9l0.2-0.6l6.5-4.3l-6.8-5.4v-0.1l2.5-2V7.3
		L2,10v10.4C2,21.3,2.7,22,3.6,22h16.9c0.9,0,1.6-0.7,1.6-1.6V10L18.7,7.3z"/>
</svg>
