<svg xmlns="http://www.w3.org/2000/svg" viewBox="0 0 32 32">
<path d="M15.6,8.1c0,0.1-0.1,0.1-0.1,0.1h-0.1c-0.1,0-0.1-0.1-0.2-0.2c0,0-0.1-0.1-0.1-0.2c0-0.1,0-0.1,0.1-0.1l0.2,0.1
	C15.5,7.9,15.6,8,15.6,8.1 M13.7,7.1c0-0.5-0.2-0.8-0.5-0.8c0,0,0,0.1-0.1,0.1v0.2h0.3c0,0.2,0.1,0.3,0.1,0.5H13.7 M17.3,6.6
	c0.2,0,0.3,0.2,0.4,0.5h0.2c-0.1-0.1-0.1-0.2-0.1-0.3c0-0.1,0-0.2-0.1-0.3c-0.1-0.1-0.2-0.2-0.3-0.2c0,0-0.1,0.1-0.2,0.1
	C17.2,6.5,17.3,6.5,17.3,6.6 M14.2,8.2c-0.1,0-0.1,0-0.1-0.1c0-0.1,0-0.2,0.1-0.3c0.2,0,0.3-0.1,0.3-0.1c0.1,0,0.1,0.1,0.1,0.1
	c0,0.1-0.1,0.2-0.3,0.4H14.2 M13.1,8.1c-0.4-0.2-0.5-0.5-0.5-1c0-0.3,0-0.5,0.2-0.7c0.1-0.2,0.3-0.3,0.5-0.3c0.2,0,0.3,0.1,0.5,0.3
	C13.9,6.7,14,7,14,7.3v0.1v0.1h0.1V7.4c0.1,0,0.1-0.2,0.1-0.6c0-0.3,0-0.6-0.2-0.9c-0.2-0.3-0.4-0.5-0.8-0.5c-0.3,0-0.6,0.2-0.7,0.5
	c-0.2,0.4-0.2,0.7-0.2,1.2c0,0.4,0.1,0.8,0.6,1.2C12.9,8.2,13,8.2,13.1,8.1 M25.9,22.6c0.1,0,0.1,0,0.1-0.1c0-0.2-0.1-0.5-0.4-0.8
	c-0.3-0.3-0.8-0.5-1.4-0.6c-0.1,0-0.2,0-0.2,0c-0.1,0-0.1,0-0.2,0c-0.1,0-0.3,0-0.4-0.1c0.3-1,0.4-1.8,0.4-2.5c0-1-0.2-1.7-0.6-2.4
	c-0.4-0.6-0.8-0.9-1.3-1c-0.1,0.1-0.1,0.1-0.1,0.2c0.5,0.2,1,0.6,1.3,1.2c0.3,0.7,0.4,1.3,0.4,2.1c0,0.6-0.1,1.4-0.5,2.5
	c-0.4,0.2-0.8,0.5-1.1,1.1c0,0.1,0,0.1,0.1,0.1c0,0,0.1-0.1,0.2-0.3c0.2-0.2,0.3-0.3,0.5-0.5c0.3-0.2,0.5-0.3,0.8-0.3
	c0.5,0,1,0.1,1.3,0.2c0.4,0.1,0.6,0.3,0.7,0.4c0.1,0.2,0.2,0.3,0.3,0.4C25.8,22.5,25.9,22.6,25.9,22.6 M16.5,7.7
	c-0.1-0.1-0.1-0.3-0.1-0.5c0-0.4,0-0.6,0.2-0.9C16.8,6.1,17,6,17.2,6c0.3,0,0.5,0.2,0.7,0.4c0.1,0.3,0.2,0.5,0.2,0.8
	c0,0.5-0.2,0.8-0.6,0.9c0,0,0.1,0.1,0.2,0.1c0.2,0,0.3,0.1,0.5,0.2c0.1-0.6,0.2-1,0.2-1.5c0-0.6-0.1-1-0.3-1.3
	c-0.3-0.3-0.6-0.4-1-0.4c-0.3,0-0.6,0.1-0.9,0.3C16,5.8,15.9,6,15.9,6.3c0,0.5,0.1,0.9,0.3,1.3C16.3,7.6,16.4,7.7,16.5,7.7
	 M17.7,9.4c-1.3,0.9-2.4,1.3-3.2,1.3c-0.7,0-1.4-0.3-2.1-0.8c0.1,0.2,0.2,0.4,0.3,0.5l0.6,0.6c0.4,0.4,0.9,0.6,1.4,0.6
	c0.7,0,1.5-0.4,2.6-1.1l0.9-0.6c0.2-0.2,0.4-0.4,0.4-0.7c0-0.1,0-0.2-0.1-0.2C18.5,8.7,18,8.4,17,8.1c-0.9-0.4-1.6-0.6-2.1-0.6
	c-0.3,0-0.8,0.2-1.5,0.6c-0.6,0.4-1,0.8-1,1.2c0,0,0.1,0.1,0.2,0.3c0.6,0.5,1.2,0.8,1.8,0.8c0.8,0,1.8-0.4,3.2-1.4v0.2
	C17.7,9.3,17.7,9.4,17.7,9.4 M20.1,30.1c0.4,0.8,1.1,1.2,1.9,1.2c0.2,0,0.4,0,0.6-0.1c0.2,0,0.4-0.1,0.5-0.2
	c0.1-0.1,0.2-0.1,0.3-0.2c0.2-0.1,0.2-0.1,0.3-0.2l1.7-1.5c0.4-0.3,0.8-0.6,1.3-0.9c0.4-0.2,0.8-0.4,1-0.5c0.3-0.1,0.5-0.2,0.7-0.4
	c0.1-0.2,0.2-0.3,0.2-0.6c0-0.3-0.2-0.5-0.4-0.7c-0.2-0.2-0.4-0.3-0.6-0.3c-0.2-0.1-0.4-0.2-0.7-0.5c-0.2-0.3-0.4-0.6-0.5-1.1
	l-0.1-0.6c-0.1-0.3-0.1-0.5-0.2-0.6c0,0,0,0-0.1,0c-0.1,0-0.3,0.1-0.4,0.3c-0.2,0.2-0.4,0.4-0.6,0.6c-0.1,0.2-0.4,0.4-0.6,0.6
	c-0.3,0.2-0.6,0.3-0.8,0.3c-0.8,0-1.2-0.2-1.5-0.7c-0.2-0.3-0.3-0.7-0.4-1.1c-0.2-0.2-0.3-0.3-0.5-0.3c-0.5,0-0.7,0.5-0.7,1.6v0.3
	v1.2v0.9v0.4v0.3c0,0.1-0.1,0.3-0.1,0.6c-0.1,0.3-0.1,0.7-0.1,1.1L20.1,30.1L20.1,30.1 M5.2,29.5c1,0.1,2.1,0.4,3.3,0.9
	c1.2,0.5,2,0.7,2.3,0.7c0.7,0,1.3-0.3,1.8-0.9c0.1-0.2,0.1-0.4,0.1-0.7c0-1-0.6-2.2-1.8-3.7l-0.7-0.9c-0.1-0.2-0.3-0.5-0.5-0.9
	c-0.2-0.4-0.4-0.7-0.6-0.9c-0.1-0.2-0.3-0.5-0.6-0.7c-0.3-0.2-0.6-0.4-0.9-0.5c-0.4,0.1-0.7,0.2-0.9,0.4s-0.2,0.4-0.2,0.6
	c0,0.2-0.1,0.4-0.2,0.4c-0.1,0.1-0.3,0.1-0.5,0.2c-0.1,0-0.1,0-0.3,0H5.2c-0.5,0-0.9,0.1-1.1,0.2c-0.3,0.3-0.4,0.6-0.4,1
	c0,0.2,0,0.4,0.1,0.8c0.1,0.4,0.1,0.7,0.1,0.9c0,0.4-0.1,0.8-0.4,1.3c-0.3,0.4-0.4,0.8-0.4,1C3.3,29.1,4,29.4,5.2,29.5 M8.6,20.2
	c0-0.7,0.2-1.5,0.6-2.4c0.4-0.9,0.7-1.5,1.1-1.9c0-0.1-0.1-0.1-0.2-0.1L10,15.6c-0.3,0.3-0.7,1-1.1,2.1c-0.4,0.9-0.7,1.8-0.7,2.4
	c0,0.5,0.1,0.9,0.3,1.2c0.2,0.3,0.8,0.8,1.6,1.5l1.1,0.7c1.2,1,1.8,1.7,1.8,2.1c0,0.2-0.1,0.4-0.4,0.7c-0.2,0.2-0.5,0.4-0.7,0.4
	c0,0,0,0,0,0.1c0,0,0.1,0.2,0.3,0.6c0.4,0.6,1.4,0.9,2.6,0.9c2.3,0,4-0.9,5.3-2.8c0-0.5,0-0.8-0.1-1v-0.4c0-0.7,0.1-1.2,0.3-1.5
	c0.2-0.3,0.4-0.5,0.7-0.5c0.2,0,0.4,0.1,0.6,0.2c0.1-0.8,0.1-1.5,0.1-2.1c0-0.9,0-1.7-0.2-2.4c-0.1-0.6-0.3-1.1-0.5-1.5
	c-0.2-0.3-0.4-0.6-0.6-0.9c-0.2-0.3-0.3-0.6-0.5-0.9c-0.1-0.4-0.2-0.7-0.2-1.2c-0.3-0.5-0.5-1-0.8-1.5c-0.2-0.5-0.4-1-0.6-1.4
	l-0.9,0.7c-1,0.7-1.8,1-2.6,1c-0.6,0-1.1-0.1-1.4-0.5l-0.6-0.5c0,0.3-0.1,0.7-0.3,1.1l-0.6,1.2c-0.3,0.7-0.4,1.1-0.5,1.4
	c0,0.2-0.1,0.4-0.1,0.4l-0.8,1.5c-0.8,1.5-1.3,3-1.3,4.1c0,0.2,0,0.5,0.1,0.7C8.8,21.2,8.6,20.8,8.6,20.2 M16,29.9
	c-1.3,0-2.4,0.2-3.1,0.5v0c-0.5,0.6-1.1,0.9-1.9,0.9c-0.5,0-1.3-0.2-2.4-0.6c-1.1-0.4-2-0.7-2.9-0.8c-0.1,0-0.3-0.1-0.6-0.1
	c-0.3,0-0.6-0.1-0.8-0.1c-0.2,0-0.5-0.1-0.7-0.2c-0.3-0.1-0.5-0.2-0.6-0.3c-0.1-0.1-0.2-0.3-0.2-0.4c0-0.2,0-0.3,0.1-0.5
	C3,28.1,3.1,28,3.2,27.9c0.1-0.1,0.1-0.2,0.2-0.3c0.1-0.1,0.1-0.2,0.1-0.3c0-0.1,0.1-0.2,0.1-0.3c0-0.1,0-0.2,0-0.3s0-0.4-0.1-1
	c-0.1-0.5-0.1-0.9-0.1-1c0-0.5,0.1-0.8,0.3-1.1c0.2-0.3,0.4-0.4,0.7-0.4h1.2c0.1,0,0.2-0.1,0.5-0.2c0.1-0.2,0.1-0.3,0.2-0.4
	c0.1-0.1,0.1-0.2,0.1-0.3c0-0.1,0-0.1,0.1-0.2c0-0.1,0.1-0.2,0.2-0.2c-0.1-0.1-0.1-0.2-0.1-0.4c0-0.1,0-0.2,0-0.3
	c0-0.4,0.2-0.9,0.5-1.6l0.4-0.6c0.3-0.6,0.5-1,0.7-1.4c0.2-0.4,0.4-1,0.6-1.8c0.2-0.7,0.6-1.4,1.2-2.2l0.8-0.9
	c0.5-0.6,0.9-1.1,1.1-1.5c0.2-0.4,0.3-0.9,0.3-1.3c0-0.2-0.1-0.8-0.2-1.8c-0.1-1-0.2-2.1-0.2-3c0-0.7,0.1-1.2,0.2-1.7
	c0.1-0.5,0.4-1,0.7-1.4c0.3-0.4,0.7-0.8,1.3-1c0.6-0.2,1.3-0.3,2.2-0.3c0.3,0,0.6,0,0.9,0.1c0.3,0,0.7,0.1,1.2,0.3
	c0.4,0.2,0.8,0.4,1.1,0.7C19.6,2,20,2.5,20.3,3c0.2,0.6,0.4,1.2,0.5,2.1c0.1,0.5,0.1,1,0.2,1.7c0,0.6,0.1,1,0.1,1.3
	c0.1,0.3,0.1,0.7,0.2,1.2c0.1,0.4,0.2,0.8,0.4,1.1c0.2,0.4,0.4,0.8,0.7,1.2c0.3,0.5,0.7,1,1.1,1.6c0.9,1,1.6,2.2,2.1,3.3
	c0.5,1,0.8,2.4,0.8,3.8c0,0.7-0.1,1.4-0.3,2.1c0.2,0,0.3,0.1,0.4,0.2s0.2,0.5,0.3,0.9l0.1,0.8c0.1,0.2,0.2,0.4,0.5,0.6
	c0.2,0.2,0.4,0.3,0.7,0.5c0.2,0.1,0.5,0.2,0.7,0.4c0.2,0.2,0.3,0.4,0.3,0.6c0,0.3-0.1,0.6-0.3,0.8c-0.2,0.2-0.4,0.3-0.7,0.4
	c-0.2,0.1-0.6,0.3-1.2,0.6c-0.5,0.3-1,0.7-1.5,1.1l-1,0.9c-0.4,0.4-0.8,0.7-1.1,0.9c-0.3,0.2-0.7,0.3-1.1,0.3l-0.7-0.1
	c-0.8-0.2-1.3-0.6-1.6-1.3C18.1,30,16.8,29.9,16,29.9"/>
</svg>
