<svg width="24px" height="24px" viewBox="0 0 24 24" version="1.1" xmlns="http://www.w3.org/2000/svg" xmlns:xlink="http://www.w3.org/1999/xlink">
    <g fill-rule="evenodd">
        <path d="M5,19 L19,19 L19,5 L5,5 L5,19 Z M19,3 L5,3 C3.9,3 3,3.9 3,5 L3,19 C3,20.1 3.9,21 5,21 L19,21 C20.1,21 21,20.1 21,19 L21,5 C21,3.9 20.1,3 19,3 L19,3 Z"></path>
        <path d="M6.28672697,8.61904386 L17.1111513,8.61904386 L17.1111513,6.43812281 L6.28672697,6.43812281 L6.28672697,8.61904386 Z M6.28672697,12.980886 L17.1111513,12.980886 L17.1111513,10.7999649 L6.28672697,10.7999649 L6.28672697,12.980886 Z M6.28672697,17.3427281 L12.7813816,17.3427281 L12.7813816,15.161807 L6.28672697,15.161807 L6.28672697,17.3427281 Z"></path>
    </g>
</svg>
