<svg xmlns="http://www.w3.org/2000/svg" width="24" height="24" viewBox="0 0 24 24">
    <path d="M6.8,18.3V8.1H6.8C6.3,8.3,4.5,9.5,3.9,9.9V7.8c0.6-0.5,2.4-1.6,3-1.9H9v12.4H6.8z"/>
    <path d="M13.1,15.2c0.1,0.8,0.8,1.6,2.1,1.6c1.9,0,2.7-2,2.7-4.6h-0.1c-0.3,0.9-1.3,1.8-3.1,1.8c-2,0-3.9-1.4-3.9-4.1
    c0-2.7,2.1-4.3,4.4-4.3c2.9,0,4.7,1.9,4.7,6.3c0,4.1-1.8,6.6-4.8,6.6c-2.7,0-4-1.8-4.1-3.4H13.1z M15.3,7.4c-1.2,0-2.3,0.8-2.3,2.5
    c0,1.6,1.1,2.4,2.3,2.4c1.3,0,2.4-1,2.4-2.4C17.7,8.3,16.6,7.4,15.3,7.4z"/>
</svg>
