<svg height="24" viewBox="0 0 24 24" width="24" xmlns="http://www.w3.org/2000/svg">
    <path d="M21.4888307,13.926 L18.2168512,16.4072308 C18.2708665,15.7426154 18.3329841,14.9713846 18.3599918,14.1309231 C18.3991529,13.2406154 18.3829483,12.2755385 18.3167795,11.2952308 C18.2735673,10.8078462 18.2195519,10.3163077 18.1331274,9.82753846 C18.0561555,9.34292308 17.9373217,8.84584615 17.8225391,8.43876923 C17.5848716,7.57615385 17.2877872,6.75784615 16.9231836,6.08907692 C16.5707335,5.41476923 16.1372604,4.91492308 15.8023652,4.62553846 C15.6308665,4.48153846 15.4931274,4.37769231 15.3891478,4.31953846 C15.2892194,4.25861538 15.2365545,4.22676923 15.2365545,4.22676923 C15.1541811,4.17553846 15.0502015,4.17138462 14.9624266,4.224 C14.8314394,4.30292308 14.7868767,4.476 14.8611478,4.61169231 L14.8719509,4.63107692 C14.8719509,4.63107692 14.9826824,4.83046154 15.1298742,5.17246154 C15.1987437,5.34830769 15.2851683,5.55184615 15.3526875,5.80246154 C15.4337105,6.04338462 15.491777,6.33 15.5592962,6.64015385 C15.6227642,6.95307692 15.6740788,7.29923077 15.7307949,7.66892308 C15.7780583,8.04692308 15.8280225,8.44569231 15.8806875,8.85830769 C15.9347028,9.29861538 15.9860174,9.68353846 16.0103243,10.1044615 C16.0400327,10.5198462 16.0427335,10.9532308 16.0359816,11.3893846 C16.0400327,12.2616923 15.9725136,13.1492308 15.921199,13.9924615 C15.8577309,14.8453846 15.7996645,15.6429231 15.7483499,16.3269231 C15.7469995,16.3656923 15.7442987,16.4003077 15.7429483,16.4376923 L15.6281657,16.3186154 L12.6316645,13.2918462 L11.0314598,13.746 L16.5977412,20.406 L22.9918077,14.6030769 L21.4888307,13.926 L21.4888307,13.926 L21.4888307,13.926 Z"/>
    <path d="M2.50311202,9.48055385 L5.77509156,6.99932308 C5.72107621,7.66393846 5.65895857,8.43516923 5.6319509,9.27563077 C5.59278977,10.1659385 5.60899437,11.1310154 5.67516317,12.1113231 C5.71837545,12.5987077 5.77239079,13.0902462 5.85881535,13.5790154 C5.93578721,14.0636308 6.05462097,14.5607077 6.16940358,14.9677846 C6.4070711,15.8304 6.7041555,16.6487077 7.06875908,17.3174769 C7.42120921,17.9917846 7.85468235,18.4916308 8.18957749,18.7810154 C8.36107621,18.9250154 8.49881535,19.0288615 8.60279488,19.0870154 C8.70272327,19.1479385 8.75538824,19.1797846 8.75538824,19.1797846 C8.83776164,19.2310154 8.94174118,19.2351692 9.02951611,19.1825538 C9.16050332,19.1036308 9.20506598,18.9305538 9.13079488,18.7948615 L9.11999182,18.7754769 C9.11999182,18.7754769 9.00926036,18.5760923 8.86206854,18.2340923 C8.79319898,18.0582462 8.70677442,17.8547077 8.63925524,17.6040923 C8.55823223,17.3631692 8.50016573,17.0765538 8.43264655,16.7664 C8.36917852,16.4534769 8.31786394,16.1073231 8.26114783,15.7376308 C8.2138844,15.3596308 8.1639202,14.9608615 8.11125524,14.5482462 C8.0572399,14.1079385 8.00592532,13.7230154 7.98161841,13.3020923 C7.95190997,12.8867077 7.94920921,12.4533231 7.95596113,12.0171692 C7.95190997,11.1448615 8.01942916,10.2573231 8.07074373,9.41409231 C8.13421176,8.56116923 8.19227826,7.76363077 8.24359284,7.07963077 C8.24494322,7.04086154 8.24764399,7.00624615 8.24899437,6.96886154 L8.36377698,7.08793846 L11.3602783,10.1147077 L12.9604829,9.66055385 L7.39420153,3.00055385 L1.00013504,8.80347692 L2.50311202,9.48055385 L2.50311202,9.48055385 L2.50311202,9.48055385 Z"/>
</svg>
