<svg xmlns="http://www.w3.org/2000/svg" width="24" height="24" viewBox="0 0 24 24">
  <path d="M19.77,13.77l-2.68,2c0-.53.1-1.15,0.12-1.82a20,20,0,0,0,0-2.26c0-.39-0.08-0.78-0.15-1.17a10,10,0,0,0-.25-1.11A8.94,8.94,0,0,0,16,7.52a4.1,4.1,0,0,0-.92-1.17,2.42,2.42,0,0,0-.34-0.24L14.65,6a0.22,0.22,0,0,0-.22,0,0.23,0.23,0,0,0-.08.31v0s0.09,0.16.21,0.43a4.6,4.6,0,0,1,.18.5,6.34,6.34,0,0,1,.17.67C15,8.21,15,8.48,15.06,8.78l0.12,0.95c0,0.35.09,0.66,0.11,1s0,0.68,0,1c0,0.7-.05,1.41-0.09,2.08l-0.14,1.86v0.09L15,15.68l-2.45-2.42-1.31.36,4.56,5.32L21,14.31l-1.23-.54h0Z"/>
  <path d="M4.23,10.23l2.68-2c0,0.53-.1,1.15-0.12,1.82a20,20,0,0,0,0,2.26c0,0.39.08,0.78,0.15,1.17a10,10,0,0,0,.25,1.11A8.94,8.94,0,0,0,8,16.48a4.1,4.1,0,0,0,.92,1.17,2.42,2.42,0,0,0,.34.24L9.35,18a0.22,0.22,0,0,0,.22,0,0.23,0.23,0,0,0,.08-0.31v0s-0.09-.16-0.21-0.43a4.6,4.6,0,0,1-.18-0.5A6.34,6.34,0,0,1,9.08,16C9,15.79,9,15.52,8.94,15.22l-0.12-.95c0-.35-0.09-0.66-0.11-1s0-.68,0-1c0-.7.05-1.41,0.09-2.08L8.93,8.31V8.22L9,8.32l2.45,2.42,1.31-.36L8.23,5.05,3,9.69l1.23,0.54h0Z"/>
</svg>
