<svg height="24" viewBox="0 0 24 24" width="24" xmlns="http://www.w3.org/2000/svg">
	<path d="M3.8,9.2c0-0.9,1-2.6,2.3-3.1s3.3-0.5,6-0.5c2.9,0,5.8,0.5,5.8,0.5l-2.3-2.3l1-1.9L22,7.4l-5.5,5.5l-1-1.9l2.3-2.3
		c0,0-2.9-0.5-5.9-0.5c-2.6,0-4.6,0-5.9,0.5s-2.2,3.7-2.2,3.7S3.8,10.1,3.8,9.2z"/>
	<path d="M20.2,14.8c0,0.9-1,2.6-2.3,3.1s-3.3,0.5-6,0.5c-2.9,0-5.8-0.5-5.8-0.5l2.3,2.3l-1,1.9L2,16.6l5.5-5.5l1,1.9l-2.3,2.3
		c0,0,2.9,0.5,5.9,0.5c2.6,0,4.6,0,5.9-0.5s2.2-3.7,2.2-3.7S20.2,13.9,20.2,14.8z"/>
</svg>
