<svg version="1.1" id="Layer_1" xmlns="http://www.w3.org/2000/svg" xmlns:xlink="http://www.w3.org/1999/xlink" x="0px" y="0px"
	 viewBox="-69 71 40 40" style="enable-background:new -69 71 40 40;" xml:space="preserve">
<rect x="-69" y="71" fill="#FFAC52" width="40" height="40"/>
<g>
	<path fill="#FFFFFF" d="M-58.1,94.9c-0.3-0.5-0.5-1-0.6-1.5c-0.3-1-0.5-2.1-0.5-3.1c0-1,0.2-2,0.5-3.1c0.2-0.5,0.4-1,0.6-1.6
		s0.6-1,0.9-1.6h1.1c-0.3,0.6-0.6,1.1-0.8,1.6s-0.4,1-0.5,1.5c-0.2,0.5-0.3,1.1-0.3,1.6s-0.1,1-0.1,1.6c0,0.5,0,1.1,0.1,1.6
		s0.2,1,0.3,1.5s0.3,1,0.6,1.5s0.5,1,0.8,1.6h-1.1C-57.5,96-57.8,95.4-58.1,94.9z"/>
	<path fill="#FFFFFF"  d="M-48.2,93.4c0.1-0.5,0.3-1,0.3-1.5s0.1-1.1,0.1-1.6c0-0.5,0-1-0.1-1.6c-0.1-0.5-0.2-1-0.3-1.6
		c-0.1-0.5-0.3-1-0.5-1.5c-0.2-0.5-0.5-1.1-0.8-1.6h1.1c0.7,1.1,1.2,2.1,1.5,3.2c0.3,1,0.5,2.1,0.5,3.1c0,1-0.2,2-0.5,3.1
		c-0.3,1-0.8,2.1-1.5,3.2h-1.1C-48.9,95.5-48.5,94.5-48.2,93.4z"/>
	<path fill="#FFFFFF"  d="M-41.7,97.2c1.2-0.5,1.8-1.3,1.8-2.4c-0.1,0-0.1,0-0.2,0s-0.1,0-0.1,0c-0.2,0-0.3,0-0.4-0.1s-0.3-0.1-0.4-0.2
		c-0.2-0.2-0.3-0.5-0.3-0.8c0-0.2,0-0.3,0.1-0.4c0.1-0.1,0.1-0.3,0.2-0.4c0.1-0.1,0.2-0.2,0.4-0.2c0.1-0.1,0.3-0.1,0.5-0.1
		c0.4,0,0.7,0.2,1,0.5c0.2,0.3,0.3,0.8,0.3,1.3c0,0.8-0.2,1.5-0.7,2.1s-1.1,1-1.9,1.3L-41.7,97.2z M-40.2,89.9
		c-0.3,0-0.6-0.1-0.8-0.3c-0.2-0.2-0.3-0.5-0.3-0.9c0-0.4,0.1-0.6,0.3-0.9c0.2-0.2,0.5-0.3,0.8-0.3c0.3,0,0.6,0.1,0.8,0.3
		c0.2,0.2,0.3,0.5,0.3,0.9c0,0.4-0.1,0.7-0.3,0.9C-39.6,89.8-39.9,89.9-40.2,89.9z"/>
</g>
</svg>
