<?xml version="1.0" encoding="utf-8"?>
<!-- Generator: Adobe Illustrator 18.1.0, SVG Export Plug-In . SVG Version: 6.00 Build 0)  -->
<!DOCTYPE svg PUBLIC "-//W3C//DTD SVG 1.1//EN" "http://www.w3.org/Graphics/SVG/1.1/DTD/svg11.dtd">
<svg version="1.1" id="Layer_1" xmlns="http://www.w3.org/2000/svg" xmlns:xlink="http://www.w3.org/1999/xlink" x="0px" y="0px"
	 viewBox="0 0 40 40" enable-background="new 0 0 40 40" xml:space="preserve">
<rect fill="#E34221" width="40" height="40"/>
<g>
	<path fill="#FFFFFF" d="M10.1,23.7v-8h3.5c1.7,0,2.6,1.1,2.6,2.5c0,1.4-0.9,2.5-2.6,2.5h-2.1v3H10.1z M14.8,18.2
		c0-0.8-0.6-1.3-1.4-1.3h-1.9v2.5h1.9C14.2,19.5,14.8,19,14.8,18.2z"/>
	<path fill="#FFFFFF" d="M17.4,23.7v-8h3.5c1.7,0,2.6,1.1,2.6,2.5c0,1.4-0.9,2.5-2.6,2.5h-2.1v3H17.4z M22.1,18.2
		c0-0.8-0.6-1.3-1.4-1.3h-1.9v2.5h1.9C21.5,19.5,22.1,19,22.1,18.2z"/>
	<path fill="#FFFFFF" d="M26.6,23.7V17h-2.4v-1.2h6.2V17H28v6.8H26.6z"/>
</g>
</svg>
