<?xml version="1.0" encoding="utf-8"?>
<!-- Generator: Adobe Illustrator 18.1.0, SVG Export Plug-In . SVG Version: 6.00 Build 0)  -->
<!DOCTYPE svg PUBLIC "-//W3C//DTD SVG 1.1//EN" "http://www.w3.org/Graphics/SVG/1.1/DTD/svg11.dtd">
<svg version="1.1" id="Layer_1" xmlns="http://www.w3.org/2000/svg" xmlns:xlink="http://www.w3.org/1999/xlink" x="0px" y="0px"
	 viewBox="0 0 40 40" enable-background="new 0 0 40 40" xml:space="preserve">
<rect fill="#6F7B84" width="40" height="40"/>
<g>
	<path fill="#FFFFFF" d="M11.8,23.7v-1.1l4.1-5.6h-4.1v-1.2h5.9v1.1l-4.1,5.6h4.2v1.2H11.8z"/>
	<path fill="#FFFFFF" d="M19.2,23.7v-8h1.4v8H19.2z"/>
	<path fill="#FFFFFF" d="M22.3,23.7v-8h3.5c1.7,0,2.6,1.1,2.6,2.5c0,1.4-0.9,2.5-2.6,2.5h-2.1v3H22.3z M27,18.2
		c0-0.8-0.6-1.3-1.4-1.3h-1.9v2.5h1.9C26.4,19.5,27,19,27,18.2z"/>
</g>
</svg>
