<?xml version="1.0" encoding="utf-8"?>
<!-- Generator: Adobe Illustrator 18.1.0, SVG Export Plug-In . SVG Version: 6.00 Build 0)  -->
<!DOCTYPE svg PUBLIC "-//W3C//DTD SVG 1.1//EN" "http://www.w3.org/Graphics/SVG/1.1/DTD/svg11.dtd">
<svg version="1.1" id="Layer_1" xmlns="http://www.w3.org/2000/svg" xmlns:xlink="http://www.w3.org/1999/xlink" x="0px" y="0px"
	 viewBox="0 0 40 40" enable-background="new 0 0 40 40" xml:space="preserve">
<rect fill="#379FD3" width="40" height="40"/>
<path fill="#FFFFFF" d="M28,11l-12.9,1.7v12.3c-0.7-0.2-1.5-0.2-2.3-0.1c-1.8,0.4-3,1.6-2.7,2.7c0.4,1.1,2.1,1.7,4,1.4
	c1.6-0.3,2.7-1.3,2.7-2.3h0v-9.8l9.5-1.2v7.6c-0.7-0.2-1.5-0.2-2.3-0.1c-1.9,0.4-3.1,1.6-2.7,2.7c0.4,1.1,2.1,1.7,4,1.4
	c1.7-0.3,2.8-1.4,2.8-2.4L28,11L28,11z"/>
</svg>
