<svg xmlns="http://www.w3.org/2000/svg" viewBox="0 0 40 40" enable-background="new 0 0 40 40"><path fill="#F8BE46" d="M0 0h40v40H0z"/><g fill="#fff"><path d="M9.3 19.7c0-2.5 1.8-4.1 4.2-4.1 1.6 0 2.6.8 3.2 1.8l-1.2.6c-.4-.7-1.2-1.2-2-1.2-1.6 0-2.8 1.2-2.8 2.9s1.2 2.9 2.8 2.9c.9 0 1.6-.5 2-1.2l1.2.6c-.6 1-1.6 1.8-3.2 1.8-2.4.1-4.2-1.6-4.2-4.1zM17.3 22.6l.8-1.1c.5.6 1.4 1.1 2.5 1.1 1.2 0 1.6-.6 1.6-1.1 0-1.7-4.7-.6-4.7-3.6 0-1.3 1.2-2.4 2.9-2.4 1.2 0 2.3.4 3 1.1l-.8 1c-.6-.6-1.5-.9-2.3-.9-.8 0-1.3.4-1.3 1 0 1.5 4.7.6 4.7 3.6 0 1.3-.9 2.5-3.1 2.5-1.5.1-2.6-.4-3.3-1.2zM24.4 22.6l.8-1.1c.5.6 1.4 1.1 2.5 1.1 1.2 0 1.6-.6 1.6-1.1 0-1.7-4.7-.6-4.7-3.6 0-1.3 1.2-2.4 2.9-2.4 1.2 0 2.3.4 3 1.1l-.8 1c-.6-.6-1.5-.9-2.3-.9-.8 0-1.3.4-1.3 1 0 1.5 4.7.6 4.7 3.6 0 1.3-.9 2.5-3.1 2.5-1.5.1-2.6-.4-3.3-1.2z"/></g></svg>