<?xml version="1.0" encoding="utf-8"?>
<!-- Generator: Adobe Illustrator 18.1.0, SVG Export Plug-In . SVG Version: 6.00 Build 0)  -->
<!DOCTYPE svg PUBLIC "-//W3C//DTD SVG 1.1//EN" "http://www.w3.org/Graphics/SVG/1.1/DTD/svg11.dtd">
<svg version="1.1" id="Layer_1" xmlns="http://www.w3.org/2000/svg" xmlns:xlink="http://www.w3.org/1999/xlink" x="0px" y="0px"
	 viewBox="0 0 40 40" enable-background="new 0 0 40 40" xml:space="preserve">
<rect fill="#F8BE46" width="40" height="40"/>
<g>
	<path fill="#FFFFFF" d="M10.2,23.7v-8h5.5V17h-4.1V19h4v1.2h-4v2.2h4.1v1.2H10.2z"/>
	<path fill="#FFFFFF" d="M17.1,23.7v-8h3.5c1.7,0,2.6,1.1,2.6,2.5c0,1.4-0.9,2.5-2.6,2.5h-2.1v3H17.1z M21.8,18.2
		c0-0.8-0.6-1.3-1.4-1.3h-1.9v2.5h1.9C21.2,19.5,21.8,19,21.8,18.2z"/>
	<path fill="#FFFFFF" d="M23.9,22.6l0.8-1.1c0.5,0.6,1.4,1.1,2.5,1.1c1.2,0,1.6-0.6,1.6-1.1c0-1.7-4.7-0.6-4.7-3.6
		c0-1.3,1.2-2.4,2.9-2.4c1.2,0,2.3,0.4,3,1.1l-0.8,1c-0.6-0.6-1.5-0.9-2.3-0.9c-0.8,0-1.3,0.4-1.3,1c0,1.5,4.7,0.6,4.7,3.6
		c0,1.3-0.9,2.5-3.1,2.5C25.7,23.9,24.6,23.4,23.9,22.6z"/>
</g>
</svg>
