<svg viewBox="0 0 40 40"><path fill="#F8BE46" d="M0 0h40v40H0z"/><g fill="#FFF"><path d="M10.2 23.7v-8h5.5V17h-4.1v2h4v1.2h-4v2.2h4.1v1.2h-5.5zM17.1 23.7v-8h3.5c1.7 0 2.6 1.1 2.6 2.5s-.9 2.5-2.6 2.5h-2.1v3h-1.4zm4.7-5.5c0-.8-.6-1.3-1.4-1.3h-1.9v2.5h1.9c.8.1 1.4-.4 1.4-1.2zM23.9 22.6l.8-1.1c.5.6 1.4 1.1 2.5 1.1 1.2 0 1.6-.6 1.6-1.1 0-1.7-4.7-.6-4.7-3.6 0-1.3 1.2-2.4 2.9-2.4 1.2 0 2.3.4 3 1.1l-.8 1c-.6-.6-1.5-.9-2.3-.9-.8 0-1.3.4-1.3 1 0 1.5 4.7.6 4.7 3.6 0 1.3-.9 2.5-3.1 2.5-1.5.1-2.6-.4-3.3-1.2z"/></g></svg>