<svg xmlns="http://www.w3.org/2000/svg" viewBox="0 0 40 40" enable-background="new 0 0 40 40"><path fill="#80BC4B" d="M0 0h40v40H0z"/><g fill="#fff"><path d="M16.8 23.7h-.2l-6.3-3.1c-.2-.2-.3-.4-.3-.6 0-.2.1-.4.3-.5l6.3-3.1h.2c.2 0 .5.2.5.4s-.1.3-.3.4L11.1 20l5.9 2.8c.1.1.2.2.2.4.1.3-.2.5-.4.5zM22.2 14.7l-3.6 10.8c-.1.2-.2.3-.4.3-.3 0-.5-.2-.5-.4v-.1l3.6-10.8c.1-.2.2-.3.4-.3.3 0 .4.2.4.4.2 0 .2.1.1.1zM29.7 20.5l-6.3 3.1h-.2c-.2 0-.4-.2-.4-.5 0-.1.1-.3.2-.4l5.9-2.8-5.9-2.8c-.2-.1-.3-.2-.3-.4 0-.3.2-.5.5-.5h.2l6.3 3.1c.2.1.3.3.3.5 0 .4-.1.6-.3.7z"/></g></svg>