<svg viewBox="-69 71 40 40"><path fill="#FFAC52" d="M-69 71h40v40h-40z"/><g fill="#FFF"><path d="M-58.1 94.9c-.3-.5-.5-1-.6-1.5-.3-1-.5-2.1-.5-3.1s.2-2 .5-3.1c.2-.5.4-1 .6-1.6s.6-1 .9-1.6h1.1c-.3.6-.6 1.1-.8 1.6s-.4 1-.5 1.5c-.2.5-.3 1.1-.3 1.6s-.1 1-.1 1.6c0 .5 0 1.1.1 1.6l.3 1.5s.3 1 .6 1.5.5 1 .8 1.6h-1.1c-.4-.5-.7-1.1-1-1.6zM-48.2 93.4c.1-.5.3-1 .3-1.5s.1-1.1.1-1.6 0-1-.1-1.6c-.1-.5-.2-1-.3-1.6-.1-.5-.3-1-.5-1.5s-.5-1.1-.8-1.6h1.1c.7 1.1 1.2 2.1 1.5 3.2.3 1 .5 2.1.5 3.1s-.2 2-.5 3.1c-.3 1-.8 2.1-1.5 3.2h-1.1c.6-1.1 1-2.1 1.3-3.2zM-41.7 97.2c1.2-.5 1.8-1.3 1.8-2.4H-40.2c-.2 0-.3 0-.4-.1s-.3-.1-.4-.2c-.2-.2-.3-.5-.3-.8 0-.2 0-.3.1-.4.1-.1.1-.3.2-.4.1-.1.2-.2.4-.2.1-.1.3-.1.5-.1.4 0 .7.2 1 .5.2.3.3.8.3 1.3 0 .8-.2 1.5-.7 2.1s-1.1 1-1.9 1.3l-.3-.6zm1.5-7.3c-.3 0-.6-.1-.8-.3-.2-.2-.3-.5-.3-.9s.1-.6.3-.9c.2-.2.5-.3.8-.3.3 0 .6.1.8.3.2.2.3.5.3.9s-.1.7-.3.9c-.2.2-.5.3-.8.3z"/></g></svg>