<?xml version="1.0" encoding="utf-8"?>
<!-- Generator: Adobe Illustrator 18.1.0, SVG Export Plug-In . SVG Version: 6.00 Build 0)  -->
<!DOCTYPE svg PUBLIC "-//W3C//DTD SVG 1.1//EN" "http://www.w3.org/Graphics/SVG/1.1/DTD/svg11.dtd">
<svg version="1.1" id="Layer_1" xmlns="http://www.w3.org/2000/svg" xmlns:xlink="http://www.w3.org/1999/xlink" x="0px" y="0px"
	 viewBox="0 0 40 40" enable-background="new 0 0 40 40" xml:space="preserve">
<rect fill="#FB6B5B" width="40" height="40"/>
<g>
	<path fill="#FFFFFF" d="M9.6,23.7v-8h3.5c1.7,0,2.6,1.1,2.6,2.5c0,1.4-0.9,2.5-2.6,2.5H11v3H9.6z M14.2,18.2c0-0.8-0.6-1.3-1.4-1.3
		H11v2.5h1.9C13.7,19.5,14.2,19,14.2,18.2z"/>
	<path fill="#FFFFFF" d="M16.9,23.7v-8h3c2.5,0,4.2,1.7,4.2,4c0,2.4-1.7,4-4.2,4H16.9z M22.6,19.7c0-1.5-1-2.8-2.7-2.8h-1.6v5.5h1.6
		C21.6,22.5,22.6,21.3,22.6,19.7z"/>
	<path fill="#FFFFFF" d="M25.4,23.7v-8h5.5V17h-4.1V19h4v1.2h-4v3.5H25.4z"/>
</g>
</svg>
