<svg xmlns="http://www.w3.org/2000/svg" viewBox="0 0 40 40" enable-background="new 0 0 40 40"><path fill="#0C77C6" d="M0 0h40v40H0z"/><g fill="#fff"><path d="M9.4 23.7v-8h3.5c1.7 0 2.6 1.1 2.6 2.5s-.9 2.5-2.6 2.5h-2.1v3H9.4zm4.7-5.5c0-.8-.6-1.3-1.4-1.3h-1.9v2.5h1.9c.8.1 1.4-.4 1.4-1.2zM16.2 22.6l.8-1.1c.5.6 1.4 1.1 2.5 1.1 1.2 0 1.6-.6 1.6-1.1 0-1.7-4.7-.6-4.7-3.6 0-1.3 1.2-2.4 2.9-2.4 1.2 0 2.3.4 3 1.1l-.8 1c-.6-.6-1.5-.9-2.3-.9-.8 0-1.3.4-1.3 1 0 1.5 4.7.6 4.7 3.6 0 1.3-.9 2.5-3.1 2.5-1.5.1-2.6-.4-3.3-1.2zM23.8 23.7v-8h3c2.5 0 4.2 1.7 4.2 4 0 2.4-1.7 4-4.2 4h-3zm5.7-4c0-1.5-1-2.8-2.7-2.8h-1.6v5.5h1.6c1.7.1 2.7-1.1 2.7-2.7z"/></g></svg>