<?xml version="1.0" encoding="utf-8"?>
<!-- Generator: Adobe Illustrator 18.1.0, SVG Export Plug-In . SVG Version: 6.00 Build 0)  -->
<!DOCTYPE svg PUBLIC "-//W3C//DTD SVG 1.1//EN" "http://www.w3.org/Graphics/SVG/1.1/DTD/svg11.dtd">
<svg version="1.1" id="Layer_1" xmlns="http://www.w3.org/2000/svg" xmlns:xlink="http://www.w3.org/1999/xlink" x="0px" y="0px"
	 viewBox="0 0 40 40" enable-background="new 0 0 40 40" xml:space="preserve">
<rect fill="#00A1EE" width="40" height="40"/>
<g>
	<path fill="#FFFFFF" d="M14.9,23.7l-1.8-3h-1.4v3h-1.4v-8h3.5c1.6,0,2.6,1,2.6,2.5c0,1.4-0.9,2.2-1.9,2.4l2,3.1H14.9z M15,18.2
		c0-0.8-0.6-1.3-1.4-1.3h-1.9v2.5h1.9C14.4,19.5,15,19,15,18.2z"/>
	<path fill="#FFFFFF" d="M19.6,23.7V17h-2.4v-1.2h6.2V17H21v6.8H19.6z"/>
	<path fill="#FFFFFF" d="M24.7,23.7v-8h5.5V17h-4.1V19h4v1.2h-4v3.5H24.7z"/>
</g>
</svg>
