<svg xmlns="http://www.w3.org/2000/svg" viewBox="0 0 165 45"><path fill="#2F3133" d="M51.8 16.4v-4.3c0-1.5-.1-2.8-.1-3.6 0-.8.9-2.3 3-2.3h6.9c3.5 0 6 .7 7.7 2 1.7 1.3 2.5 3.1 2.5 5.5 0 1.9-.6 3.4-1.7 4.6-1.1 1.2-2.7 2-4.6 2.3v.3c1 .1 2 .3 2.9.6.9.3 1.7.8 2.4 1.5s1.2 1.5 1.6 2.4c.4.9.6 2.1.6 3.3 0 1.5-.2 2.9-.7 4.1-.5 1.3-1.3 2.3-2.3 3.2-1 .9-2.3 1.6-3.9 2.1s-3.5.8-5.7.8c-1.4 0-2.8-.1-4.2-.2-.7-.1-1.4-.1-2.1-.1-.8 0-2.4-1.1-2.4-2.8.1-1.7.1-19.4.1-19.4zm4.2 3.5h1.8c1.9 0 3.5-.1 4.7-.4 1.2-.3 2.2-.7 2.9-1.2.7-.5 1.2-1.1 1.5-1.8.3-.7.4-1.5.4-2.5 0-1.6-.5-2.8-1.6-3.7-1.1-.9-3-1.3-5.7-1.3h-1.7c-.6 0-1.3.1-2.2.1v10.8zm0 15.4c.9.2 1.7.3 2.4.3s1.5.1 2.5.1c2.7 0 4.6-.6 5.8-1.8 1.2-1.2 1.8-2.8 1.8-4.7 0-1.2-.2-2.1-.5-2.9-.3-.8-.8-1.5-1.5-1.9-.7-.5-1.6-.8-2.8-1.1-1.1-.2-2.6-.3-4.3-.3-1.1 0-2.2.1-3.4.2v12.1zM89.9 36.7c-.2-.6-.2-1.5-.2-1.5l-.3-.1c-.9 1.3-1.9 2.2-3 2.8-1.1.6-2.5.9-4.2.9-2.3 0-4.1-.5-5.5-1.6-1.4-1.1-2.1-2.6-2.1-4.7 0-3.3 1.6-5.4 4.8-6.4 1-.4 2.3-.6 3.9-.8 1.6-.2 3.6-.2 6.2-.2 0-2.1-.4-3.6-1.3-4.6-.9-1-2.5-1.5-4.7-1.5-1.5 0-2.9.3-4.2.9-.9.4-1.7 1.2-2.4 1.7s-.9 0-.9-.3c0-.9.1-1.6.3-2.2.2-.7.4-1.3.7-1.6.3-.4 1.1-.8 2.3-1.1 1.2-.3 2.7-.5 4.3-.5 3.5 0 6 .7 7.5 2.2 1.5 1.5 2.3 3.8 2.3 7.1v13.2H92c-1.3 0-1.9-1.1-2.1-1.7zm-.5-8.9c-2 0-3.5.1-4.5.2-1.1.1-2 .3-2.8.5-1.4.4-2.3.9-2.8 1.5-.5.7-.7 1.4-.7 2.2 0 1.1.3 2 1 2.6.7.6 1.8.9 3.3.9 1.3 0 2.6-.3 3.8-1 1.2-.7 2.1-1.5 2.7-2.3v-4.6zM133.4 35.8v-11c0-.8 0-1.5-.1-2.1-.1-.6-.3-1.2-.6-1.7-.7-1.2-2.1-1.8-4.2-1.8-1.3 0-2.5.2-3.6.6-1.1.4-2 1-2.8 1.7v16.9h-2c-1.1 0-2-.6-2-2.3V16.4h1.3c1.3 0 2.2.7 2.4 2 .1.3.5.1.5.1 1-1.2 2-1.4 3.2-1.9 1.2-.4 2.5-.7 4.1-.7 1.7 0 3.1.3 4.3.8 1.1.6 2 1.3 2.5 2.2.4.7.7 1.5.8 2.3.1.8.2 1.7.2 2.7v14.4h-1.6c-1.3.1-2.4-.9-2.4-2.5zM111.3 35.8v-11c0-.8 0-1.5-.1-2.1-.1-.6-.3-1.2-.6-1.7-.7-1.2-2.1-1.8-4.2-1.8-1.3 0-2.5.2-3.6.6-1.1.4-2 1-2.8 1.7v16.9h-2c-1.1 0-2-.6-2-2.3V16.4h1.3c1.3 0 2.2.8 2.4 2 .1.3.5.1.5.1 1-1.2 2-1.4 3.2-1.9 1.2-.4 2.5-.7 4.1-.7 1.7 0 3.1.3 4.3.8 1.1.6 2 1.3 2.5 2.2.4.7.7 1.5.8 2.3.1.8.2 1.7.2 2.7v14.4h-1.6c-1.2 0-2.4-.9-2.4-2.5zM149.8 38.8c-3.3 0-5.8-1-7.6-3-1.8-2-2.7-4.8-2.7-8.4 0-1.7.2-3.3.8-4.7.5-1.4 1.2-2.6 2.1-3.6.9-1 2-1.8 3.4-2.3 1.3-.6 2.8-.8 4.4-.8 3.1 0 5.6 1 7.4 2.9 1.8 2 2.8 4.7 2.8 8.3 0 1.7-.2 3.3-.7 4.7-.5 1.4-1.2 2.7-2.1 3.7-.9 1-2 1.8-3.3 2.4-1.3.6-2.8.8-4.5.8zm.1-3c2.1 0 3.7-.7 4.7-2.2 1-1.5 1.5-3.5 1.5-6.3 0-2.7-.5-4.8-1.6-6.2-1.1-1.4-2.6-2.1-4.5-2.1s-3.5.7-4.7 2.1c-1.2 1.4-1.8 3.5-1.8 6.2s.5 4.8 1.6 6.3c1.2 1.4 2.8 2.2 4.8 2.2z"/><path fill="#15548C" d="M22.8 39.9c.7-1 1.5-2.9 2.1-5.2C18.6 29.7 12 23 8.3 18c-2.1.6-3.9 1.2-5.1 1.9-1.7 1-2.7 2.3-3.1 3.8-.1 1.7 0 3.1.4 4.1.8 2.1 3.5 4.9 6.3 7.6 2.9 2.8 5.9 5.6 8 6.7.9.5 2.4.7 4.2.6 1.3-.2 2.5-1.1 3.8-2.8z"/><path fill="#247BB1" d="M36.7 37.5c2.4-2.8 5.4-17.9 3.7-21.7-.1-.2-.2-.5-.4-.8-.7-.6-1.7-.8-3.2-.8-1.4 0-4.6.2-8.6.6-.3 7.3-2.8 21.5-5.4 25.1-1.3 1.7-2.5 2.6-3.9 2.9 6.2-.2 15.9-3.1 17.8-5.3z"/><path fill="#41B0D9" d="M36.8 14.2c1.5 0 2.5.2 3.2.8-2.4-4-10.4-11.1-12.9-12.5C24.5 1.1 7.2 4.4 4.8 6.9 2.9 8.9.3 17.8 0 23.7.4 22.3 1.4 21 3.1 20c6.3-3.7 29.3-5.8 33.7-5.8z"/></svg>