<svg xmlns="http://www.w3.org/2000/svg" xmlns:xlink="http://www.w3.org/1999/xlink" viewBox="0 0 165 45">
<path fill="#2F3133" d="M51.8,16.4c0-2.7,0-2.8,0-4.3c0-1.5-0.1-2.8-0.1-3.6c0-0.8,0.9-2.3,3-2.3c1.2,0,6.9,0,6.9,0
c3.5,0,6,0.7,7.7,2c1.7,1.3,2.5,3.1,2.5,5.5c0,1.9-0.6,3.4-1.7,4.6c-1.1,1.2-2.7,2-4.6,2.3v0.3c1,0.1,2,0.3,2.9,0.6
c0.9,0.3,1.7,0.8,2.4,1.5c0.7,0.7,1.2,1.5,1.6,2.4c0.4,0.9,0.6,2.1,0.6,3.3c0,1.5-0.2,2.9-0.7,4.1C71.8,34.1,71,35.1,70,36
c-1,0.9-2.3,1.6-3.9,2.1c-1.6,0.5-3.5,0.8-5.7,0.8c-1.4,0-2.8-0.1-4.2-0.2c-0.7-0.1-1.4-0.1-2.1-0.1c-0.8,0-2.4-1.1-2.4-2.8
C51.8,34.1,51.8,16.4,51.8,16.4z M56,19.9h1.8c1.9,0,3.5-0.1,4.7-0.4c1.2-0.3,2.2-0.7,2.9-1.2c0.7-0.5,1.2-1.1,1.5-1.8
c0.3-0.7,0.4-1.5,0.4-2.5c0-1.6-0.5-2.8-1.6-3.7c-1.1-0.9-3-1.3-5.7-1.3c-0.6,0-1.2,0-1.7,0c-0.6,0-1.3,0.1-2.2,0.1V19.9z
M56,35.3c0.9,0.2,1.7,0.3,2.4,0.3c0.7,0,1.5,0.1,2.5,0.1c2.7,0,4.6-0.6,5.8-1.8c1.2-1.2,1.8-2.8,1.8-4.7c0-1.2-0.2-2.1-0.5-2.9
c-0.3-0.8-0.8-1.5-1.5-1.9c-0.7-0.5-1.6-0.8-2.8-1.1c-1.1-0.2-2.6-0.3-4.3-0.3c-1.1,0-2.2,0.1-3.4,0.2V35.3z"/>
<path fill="#2F3133" d="M89.9,36.7c-0.2-0.6-0.2-1.5-0.2-1.5l-0.3-0.1c-0.9,1.3-1.9,2.2-3,2.8c-1.1,0.6-2.5,0.9-4.2,0.9
c-2.3,0-4.1-0.5-5.5-1.6c-1.4-1.1-2.1-2.6-2.1-4.7c0-3.3,1.6-5.4,4.8-6.4c1-0.4,2.3-0.6,3.9-0.8c1.6-0.2,3.6-0.2,6.2-0.2
c0-2.1-0.4-3.6-1.3-4.6c-0.9-1-2.5-1.5-4.7-1.5c-1.5,0-2.9,0.3-4.2,0.9c-0.9,0.4-1.7,1.2-2.4,1.7c-0.7,0.5-0.9,0-0.9-0.3
c0-0.9,0.1-1.6,0.3-2.2c0.2-0.7,0.4-1.3,0.7-1.6c0.3-0.4,1.1-0.8,2.3-1.1c1.2-0.3,2.7-0.5,4.3-0.5c3.5,0,6,0.7,7.5,2.2
c1.5,1.5,2.3,3.8,2.3,7.1v13.2c0,0,0,0-1.4,0C90.7,38.4,90.1,37.3,89.9,36.7z M89.4,27.8c-2,0-3.5,0.1-4.5,0.2
c-1.1,0.1-2,0.3-2.8,0.5c-1.4,0.4-2.3,0.9-2.8,1.5c-0.5,0.7-0.7,1.4-0.7,2.2c0,1.1,0.3,2,1,2.6c0.7,0.6,1.8,0.9,3.3,0.9
c1.3,0,2.6-0.3,3.8-1c1.2-0.7,2.1-1.5,2.7-2.3V27.8z"/>
<path fill="#2F3133" d="M133.4,35.8c0-1.5,0-11,0-11c0-0.8,0-1.5-0.1-2.1c-0.1-0.6-0.3-1.2-0.6-1.7c-0.7-1.2-2.1-1.8-4.2-1.8
c-1.3,0-2.5,0.2-3.6,0.6c-1.1,0.4-2,1-2.8,1.7v16.9c0,0-0.9,0-2,0c-1.1,0-2-0.6-2-2.3c0-1.7,0-19.7,0-19.7s0,0,1.3,0
c1.3,0,2.2,0.7,2.4,2c0.1,0.3,0.5,0.1,0.5,0.1c1-1.2,2-1.4,3.2-1.9c1.2-0.4,2.5-0.7,4.1-0.7c1.7,0,3.1,0.3,4.3,0.8
c1.1,0.6,2,1.3,2.5,2.2c0.4,0.7,0.7,1.5,0.8,2.3c0.1,0.8,0.2,1.7,0.2,2.7v14.4c0,0-0.4,0-1.6,0C134.5,38.4,133.4,37.4,133.4,35.8z
"/>
<path fill="#2F3133" d="M111.3,35.8c0-1.5,0-11,0-11c0-0.8,0-1.5-0.1-2.1c-0.1-0.6-0.3-1.2-0.6-1.7c-0.7-1.2-2.1-1.8-4.2-1.8
c-1.3,0-2.5,0.2-3.6,0.6c-1.1,0.4-2,1-2.8,1.7v16.9c0,0-0.9,0-2,0c-1.1,0-2-0.6-2-2.3c0-1.7,0-19.7,0-19.7s0,0,1.3,0
c1.3,0,2.2,0.8,2.4,2c0.1,0.3,0.5,0.1,0.5,0.1c1-1.2,2-1.4,3.2-1.9c1.2-0.4,2.5-0.7,4.1-0.7c1.7,0,3.1,0.3,4.3,0.8
c1.1,0.6,2,1.3,2.5,2.2c0.4,0.7,0.7,1.5,0.8,2.3c0.1,0.8,0.2,1.7,0.2,2.7v14.4c0,0-0.4,0-1.6,0S111.3,37.4,111.3,35.8z"/>
<path fill="#2F3133" d="M149.8,38.8c-3.3,0-5.8-1-7.6-3c-1.8-2-2.7-4.8-2.7-8.4c0-1.7,0.2-3.3,0.8-4.7c0.5-1.4,1.2-2.6,2.1-3.6
c0.9-1,2-1.8,3.4-2.3c1.3-0.6,2.8-0.8,4.4-0.8c3.1,0,5.6,1,7.4,2.9c1.8,2,2.8,4.7,2.8,8.3c0,1.7-0.2,3.3-0.7,4.7
c-0.5,1.4-1.2,2.7-2.1,3.7c-0.9,1-2,1.8-3.3,2.4C153,38.6,151.5,38.8,149.8,38.8z M149.9,35.8c2.1,0,3.7-0.7,4.7-2.2
c1-1.5,1.5-3.5,1.5-6.3c0-2.7-0.5-4.8-1.6-6.2c-1.1-1.4-2.6-2.1-4.5-2.1c-1.9,0-3.5,0.7-4.7,2.1c-1.2,1.4-1.8,3.5-1.8,6.2
c0,2.7,0.5,4.8,1.6,6.3C146.3,35,147.9,35.8,149.9,35.8z"/>
<path id="Back_Solid_Fill_3_" fill="#15548C" d="M22.8,39.9c0.7-1,1.5-2.9,2.1-5.2C18.6,29.7,12,23,8.3,18
c-2.1,0.6-3.9,1.2-5.1,1.9c-1.7,1-2.7,2.3-3.1,3.8c-0.1,1.7,0,3.1,0.4,4.1c0.8,2.1,3.5,4.9,6.3,7.6c2.9,2.8,5.9,5.6,8,6.7
c0.9,0.5,2.4,0.7,4.2,0.6C20.3,42.5,21.5,41.6,22.8,39.9z"/>
<path id="Mid_Solid_Fill_3_" fill="#247BB1" d="M36.7,37.5c2.4-2.8,5.4-17.9,3.7-21.7c-0.1-0.2-0.2-0.5-0.4-0.8
c-0.7-0.6-1.7-0.8-3.2-0.8c-1.4,0-4.6,0.2-8.6,0.6c-0.3,7.3-2.8,21.5-5.4,25.1c-1.3,1.7-2.5,2.6-3.9,2.9
C25.1,42.6,34.8,39.7,36.7,37.5z"/>
<path id="Top_Solid_Fill_3_" fill="#41B0D9" d="M36.8,14.2c1.5,0,2.5,0.2,3.2,0.8C37.6,11,29.6,3.9,27.1,2.5
C24.5,1.1,7.2,4.4,4.8,6.9C2.9,8.9,0.3,17.8,0,23.7C0.4,22.3,1.4,21,3.1,20C9.4,16.3,32.4,14.2,36.8,14.2z"/>
</svg>
