<?xml version="1.0" encoding="UTF-8"?><!DOCTYPE svg PUBLIC "-//W3C//DTD SVG 1.1//EN" "http://www.w3.org/Graphics/SVG/1.1/DTD/svg11.dtd"><svg xmlns="http://www.w3.org/2000/svg"><symbol id="account" viewBox="0 0 24 24"><path d="M12 2C6.48 2 2 6.48 2 12s4.48 10 10 10 10-4.48 10-10S17.52 2 12 2zm0 3c1.66 0 3 1.34 3 3s-1.34 3-3 3-3-1.34-3-3 1.34-3 3-3zm0 14.2c-2.5 0-4.71-1.28-6-3.22.03-1.99 4-3.08 6-3.08 1.99 0 5.97 1.09 6 3.08-1.29 1.94-3.5 3.22-6 3.22z"/></symbol><symbol id="add" viewBox="0 0 24 24"><path d="M19 13h-6v6h-2v-6H5v-2h6V5h2v6h6v2z"/></symbol><symbol id="alert-add" viewBox="0 0 24 24"><path d="M0 0h24v24H0V0z" fill="none"/><path d="M10.01 21.01c0 1.1.89 1.99 1.99 1.99s1.99-.89 1.99-1.99h-3.98zm8.87-4.19V11c0-3.25-2.25-5.97-5.29-6.69v-.72C13.59 2.71 12.88 2 12 2s-1.59.71-1.59 1.59v.72C7.37 5.03 5.12 7.75 5.12 11v5.82L3 18.94V20h18v-1.06l-2.12-2.12zM16 13.01h-3v3h-2v-3H8V11h3V8h2v3h3v2.01z"/></symbol><symbol id="android" viewBox="0 0 24 24"><path d="M6 18c0 .55.45 1 1 1h1v3.5c0 .83.67 1.5 1.5 1.5s1.5-.67 1.5-1.5V19h2v3.5c0 .83.67 1.5 1.5 1.5s1.5-.67 1.5-1.5V19h1c.55 0 1-.45 1-1V8H6v10zM3.5 8C2.67 8 2 8.67 2 9.5v7c0 .83.67 1.5 1.5 1.5S5 17.33 5 16.5v-7C5 8.67 4.33 8 3.5 8zm17 0c-.83 0-1.5.67-1.5 1.5v7c0 .83.67 1.5 1.5 1.5s1.5-.67 1.5-1.5v-7c0-.83-.67-1.5-1.5-1.5zm-4.97-5.84l1.3-1.3c.2-.2.2-.51 0-.71-.2-.2-.51-.2-.71 0l-1.48 1.48C13.85 1.23 12.95 1 12 1c-.96 0-1.86.23-2.66.63L7.85.15c-.2-.2-.51-.2-.71 0-.2.2-.2.51 0 .71l1.31 1.31C6.97 3.26 6 5.01 6 7h12c0-1.99-.97-3.75-2.47-4.84zM10 5H9V4h1v1zm5 0h-1V4h1v1z"/></symbol><symbol id="apple" viewBox="0 0 24 24"><path fill-rule="evenodd" clip-rule="evenodd" d="M20.8 8.4c-1.1-1.4-2.7-2.2-4.2-2.2-2 0-2.8.9-4.2.9-1.4 0-2.5-.9-4.2-.9-1.7 0-3.5 1-4.6 2.8-1.7 2.4-1.4 7 1.2 11 .9 1.4 2.2 3 3.8 3 1.4 0 1.8-.9 3.8-.9 2 0 2.3.9 3.8.9 1.6 0 2.9-1.8 3.9-3.2.7-1 .9-1.5 1.4-2.7-3.8-1.4-4.4-6.7-.7-8.7zm-5.7-3.8c.7-.9 1.3-2.2 1.1-3.6-1.2.1-2.6.8-3.4 1.8-.7.9-1.3 2.2-1.1 3.5 1.3 0 2.6-.7 3.4-1.7z"/></symbol><symbol id="apps" viewBox="0 0 24 24"><path d="M4 8h4V4H4v4zm6 12h4v-4h-4v4zm-6 0h4v-4H4v4zm0-6h4v-4H4v4zm6 0h4v-4h-4v4zm6-10v4h4V4h-4zm-6 4h4V4h-4v4zm6 6h4v-4h-4v4zm0 6h4v-4h-4v4z"/></symbol><symbol id="arrow-drop-down-circle" viewBox="0 0 24 24"><path d="M0 0h24v24H0z" fill="none"/><path d="M12 2C6.48 2 2 6.48 2 12s4.48 10 10 10 10-4.48 10-10S17.52 2 12 2zm0 12l-4-4h8l-4 4z"/></symbol><symbol id="arrow-drop-down" viewBox="0 0 24 24"><path d="M7 10l5 5 5-5z"/></symbol><symbol id="arrow-drop-up" viewBox="0 0 24 24"><path d="M7 14l5-5 5 5z"/></symbol><symbol id="assessment" viewBox="0 0 24 24"><path d="M19 3H5c-1.1 0-2 .9-2 2v14c0 1.1.9 2 2 2h14c1.1 0 2-.9 2-2V5c0-1.1-.9-2-2-2zM9 17H7v-7h2v7zm4 0h-2V7h2v10zm4 0h-2v-4h2v4z"/></symbol><symbol id="attachment" viewBox="0 0 24 24"><path d="M16.5 6v11.5c0 2.21-1.79 4-4 4s-4-1.79-4-4V5c0-1.38 1.12-2.5 2.5-2.5s2.5 1.12 2.5 2.5v10.5c0 .55-.45 1-1 1s-1-.45-1-1V6H10v9.5c0 1.38 1.12 2.5 2.5 2.5s2.5-1.12 2.5-2.5V5c0-2.21-1.79-4-4-4S7 2.79 7 5v12.5c0 3.04 2.46 5.5 5.5 5.5s5.5-2.46 5.5-5.5V6h-1.5z"/><path d="M0 0h24v24H0z" fill="none"/></symbol><symbol id="bank" viewBox="0 0 24 24"><path d="M4 10v7h3v-7H4zm6 0v7h3v-7h-3zM2 22h19v-3H2v3zm14-12v7h3v-7h-3zm-4.5-9L2 6v2h19V6l-9.5-5z"/></symbol><symbol id="battery-alert" viewBox="0 0 24 24"><path d="M15.67 4H14V2h-4v2H8.33C7.6 4 7 4.6 7 5.33v15.33C7 21.4 7.6 22 8.33 22h7.33c.74 0 1.34-.6 1.34-1.33V5.33C17 4.6 16.4 4 15.67 4zM13 18h-2v-2h2v2zm0-4h-2V9h2v5z"/></symbol><symbol id="bill-pay" viewBox="0 0 24 24"><path d="M10.5 4.3L12 3.1l1.5 1.2h1.3L12 2 9.2 4.3M11.1 7.3c-.2.1-.3.1-.4.2-.1.1-.2.2-.2.3 0 .1-.1.3-.1.4 0 .2 0 .3.1.4.1.1.1.2.2.3.1.1.2.2.3.2.1 0 .3.1.5.1h.1V7.1c-.2.1-.4.2-.5.2zM12.6 10.2l-.3-.1v2.3c.1 0 .3 0 .4-.1.2 0 .4-.1.5-.2.1-.1.2-.2.3-.4.1-.1.1-.3.1-.5 0-.3-.1-.5-.3-.6 0-.1-.3-.3-.7-.4z"/><path d="M10.3 15.5l1.7-1.1 1.7 1.1 4.2-3V5.1H6.2v7.4l4.1 3zm1.3-5.5h-.2c-.2 0-.4-.1-.6-.2-.2-.1-.4-.2-.5-.3-.2-.1-.4-.3-.5-.5-.1-.2-.1-.4-.1-.7v-.4c0-.2.1-.4.3-.6.1-.2.4-.4.6-.5.2-.1.5-.2.9-.3v-.4h.7v.4c.5 0 1 .2 1.3.5.4.3.6.9.7 1.6v.2h-.7v-.2c0-.5-.2-.8-.4-1-.2-.2-.5-.3-.8-.3v2.2l.5.1c.3.1.6.2.8.3.2.1.4.2.5.4.1.2.2.3.3.5.1.2.1.4.1.6 0 .4-.1.7-.2.9-.1.2-.3.4-.5.6-.2.1-.5.3-.7.3-.2 0-.4.1-.6.1v.8h-.7v-.8c-.3 0-.5-.1-.7-.2-.3-.1-.5-.2-.7-.4-.2-.2-.4-.4-.5-.7-.1-.3-.2-.6-.2-1v-.2h.7v.2c0 .5.1.9.4 1.1.2.2.5.4 1 .4l-.2-2.5z"/><path d="M18.7 7.3v1.1l2.5 2v.1l-6.8 5.4 6.5 4.3.2.6H21l-9-5.3-9.1 5.4.2-.6L9.6 16l-6.8-5.4v-.1l2.5-2V7.3L2 10v10.4c0 .9.7 1.6 1.6 1.6h16.9c.9 0 1.6-.7 1.6-1.6V10l-3.4-2.7z"/></symbol><symbol id="bullets" viewBox="0 0 48 48"><path d="M8 21c-1.66 0-3 1.34-3 3s1.34 3 3 3 3-1.34 3-3-1.34-3-3-3zM8 9c-1.66 0-3 1.34-3 3s1.34 3 3 3 3-1.34 3-3-1.34-3-3-3zm0 24.33c-1.47 0-2.67 1.19-2.67 2.67s1.2 2.67 2.67 2.67 2.67-1.19 2.67-2.67-1.2-2.67-2.67-2.67zM14 38h28v-4H14v4zm0-12h28v-4H14v4zm0-16v4h28v-4H14z"/><path d="M0 0h48v48H0z" fill="none"/></symbol><symbol id="cake" viewBox="0 0 24 24"><path d="M0 0h24v24H0z" fill="none"/><path d="M12 6c1.11 0 2-.9 2-2 0-.38-.1-.73-.29-1.03L12 0l-1.71 2.97c-.19.3-.29.65-.29 1.03 0 1.1.9 2 2 2zm4.6 9.99l-1.07-1.07-1.08 1.07c-1.3 1.3-3.58 1.31-4.89 0l-1.07-1.07-1.09 1.07C6.75 16.64 5.88 17 4.96 17c-.73 0-1.4-.23-1.96-.61V21c0 .55.45 1 1 1h16c.55 0 1-.45 1-1v-4.61c-.56.38-1.23.61-1.96.61-.92 0-1.79-.36-2.44-1.01zM18 9h-5V7h-2v2H6c-1.66 0-3 1.34-3 3v1.54c0 1.08.88 1.96 1.96 1.96.52 0 1.02-.2 1.38-.57l2.14-2.13 2.13 2.13c.74.74 2.03.74 2.77 0l2.14-2.13 2.13 2.13c.37.37.86.57 1.38.57 1.08 0 1.96-.88 1.96-1.96V12C21 10.34 19.66 9 18 9z"/></symbol><symbol id="camera" viewBox="0 0 24 24"><circle cx="12" cy="12" r="3.2"/><path d="M9 2L7.17 4H4c-1.1 0-2 .9-2 2v12c0 1.1.9 2 2 2h16c1.1 0 2-.9 2-2V6c0-1.1-.9-2-2-2h-3.17L15 2H9zm3 15c-2.76 0-5-2.24-5-5s2.24-5 5-5 5 2.24 5 5-2.24 5-5 5z"/></symbol><symbol id="cancel" viewBox="0 0 24 24"><path d="M12 2C6.47 2 2 6.47 2 12s4.47 10 10 10 10-4.47 10-10S17.53 2 12 2zm5 13.59L15.59 17 12 13.41 8.41 17 7 15.59 10.59 12 7 8.41 8.41 7 12 10.59 15.59 7 17 8.41 13.41 12 17 15.59z"/></symbol><symbol id="car" viewBox="0 0 24 24"><path d="M18.92 6.01C18.72 5.42 18.16 5 17.5 5h-11c-.66 0-1.21.42-1.42 1.01L3 12v8c0 .55.45 1 1 1h1c.55 0 1-.45 1-1v-1h12v1c0 .55.45 1 1 1h1c.55 0 1-.45 1-1v-8l-2.08-5.99zM6.5 16c-.83 0-1.5-.67-1.5-1.5S5.67 13 6.5 13s1.5.67 1.5 1.5S7.33 16 6.5 16zm11 0c-.83 0-1.5-.67-1.5-1.5s.67-1.5 1.5-1.5 1.5.67 1.5 1.5-.67 1.5-1.5 1.5zM5 11l1.5-4.5h11L19 11H5z"/></symbol><symbol id="check-all" viewBox="0 0 24 24"><path d="M0 0h24v24H0z" fill="none"/><path d="M18 7l-1.41-1.41-6.34 6.34 1.41 1.41L18 7zm4.24-1.41L11.66 16.17 7.48 12l-1.41 1.41L11.66 19l12-12-1.42-1.41zM.41 13.41L6 19l1.41-1.41L1.83 12 .41 13.41z"/></symbol><symbol id="check" viewBox="0 0 24 24"><path d="M9 16.17L4.83 12l-1.42 1.41L9 19 21 7l-1.41-1.41z"/></symbol><symbol id="checkbox" viewBox="0 0 24 24"><path d="M0 0h24v24H0z" fill="none"/><path d="M19 3H5c-1.11 0-2 .9-2 2v14c0 1.1.89 2 2 2h14c1.11 0 2-.9 2-2V5c0-1.1-.89-2-2-2zm-9 14l-5-5 1.41-1.41L10 14.17l7.59-7.59L19 8l-9 9z"/></symbol><symbol id="chevron-left" viewBox="0 0 24 24"><path d="M15.41 7.41L14 6l-6 6 6 6 1.41-1.41L10.83 12z"/></symbol><symbol id="chevron-right" viewBox="0 0 24 24"><path d="M10 6L8.59 7.41 13.17 12l-4.58 4.59L10 18l6-6z"/></symbol><symbol id="close" viewBox="0 0 24 24"><path d="M19 6.41L17.59 5 12 10.59 6.41 5 5 6.41 10.59 12 5 17.59 6.41 19 12 13.41 17.59 19 19 17.59 13.41 12z"/></symbol><symbol id="code" viewBox="0 0 24 24"><path d="M0 0h24v24H0V0z" fill="none"/><path d="M9.4 16.6L4.8 12l4.6-4.6L8 6l-6 6 6 6 1.4-1.4zm5.2 0l4.6-4.6-4.6-4.6L16 6l6 6-6 6-1.4-1.4z"/></symbol><symbol id="cohort" viewBox="0 0 24 24"><path d="M0 0h24v24H0z" fill="none"/><path d="M12 2C6.48 2 2 6.48 2 12s4.48 10 10 10 10-4.48 10-10S17.52 2 12 2zM8 17.5c-1.38 0-2.5-1.12-2.5-2.5s1.12-2.5 2.5-2.5 2.5 1.12 2.5 2.5-1.12 2.5-2.5 2.5zM9.5 8c0-1.38 1.12-2.5 2.5-2.5s2.5 1.12 2.5 2.5-1.12 2.5-2.5 2.5S9.5 9.38 9.5 8zm6.5 9.5c-1.38 0-2.5-1.12-2.5-2.5s1.12-2.5 2.5-2.5 2.5 1.12 2.5 2.5-1.12 2.5-2.5 2.5z"/></symbol><symbol id="comment" viewBox="0 0 24 24"><path d="M21.99 4c0-1.1-.89-2-1.99-2H4c-1.1 0-2 .9-2 2v12c0 1.1.9 2 2 2h14l4 4-.01-18zM18 14H6v-2h12v2zm0-3H6V9h12v2zm0-3H6V6h12v2z"/></symbol><symbol id="computer" viewBox="0 0 24 24"><path d="M20 18c1.1 0 1.99-.9 1.99-2L22 6c0-1.1-.9-2-2-2H4c-1.1 0-2 .9-2 2v10c0 1.1.9 2 2 2H0v2h24v-2h-4zM4 6h16v10H4V6z"/></symbol><symbol id="conversation" viewBox="0 0 24 24"><path d="M21 6h-2v9H6v2c0 .55.45 1 1 1h11l4 4V7c0-.55-.45-1-1-1zm-4 6V3c0-.55-.45-1-1-1H3c-.55 0-1 .45-1 1v14l4-4h10c.55 0 1-.45 1-1z"/></symbol><symbol id="crop" viewBox="0 0 24 24"><path d="M17 15h2V7c0-1.1-.9-2-2-2H9v2h8v8zM7 17V1H5v4H1v2h4v10c0 1.1.9 2 2 2h10v4h2v-4h4v-2H7z"/></symbol><symbol id="dashboard" viewBox="0 0 24 24"><path d="M3 13h8V3H3v10zm0 8h8v-6H3v6zm10 0h8V11h-8v10zm0-18v6h8V3h-8z"/></symbol><symbol id="date-range" viewBox="0 0 24 24"><path d="M9 11H7v2h2v-2zm4 0h-2v2h2v-2zm4 0h-2v2h2v-2zm2-7h-1V2h-2v2H8V2H6v2H5c-1.11 0-1.99.9-1.99 2L3 20c0 1.1.89 2 2 2h14c1.1 0 2-.9 2-2V6c0-1.1-.9-2-2-2zm0 16H5V9h14v11z"/><path d="M0 0h24v24H0z" fill="none"/></symbol><symbol id="delete-forever" viewBox="0 0 24 24"><path d="M0 0h24v24H0V0z" fill="none"/><path d="M6 19c0 1.1.9 2 2 2h8c1.1 0 2-.9 2-2V7H6v12zm2.46-7.12l1.41-1.41L12 12.59l2.12-2.12 1.41 1.41L13.41 14l2.12 2.12-1.41 1.41L12 15.41l-2.12 2.12-1.41-1.41L10.59 14l-2.13-2.12zM15.5 4l-1-1h-5l-1 1H5v2h14V4z"/><path d="M0 0h24v24H0z" fill="none"/></symbol><symbol id="delete-sweep" viewBox="0 0 24 24"><path d="M15 16h4v2h-4zm0-8h7v2h-7zm0 4h6v2h-6zM3 18c0 1.1.9 2 2 2h6c1.1 0 2-.9 2-2V8H3v10zM14 5h-3l-1-1H6L5 5H2v2h12z"/><path d="M0 0h24v24H0z" fill="none"/></symbol><symbol id="delete" viewBox="0 0 24 24"><path d="M6 19c0 1.1.9 2 2 2h8c1.1 0 2-.9 2-2V7H6v12zM19 4h-3.5l-1-1h-5l-1 1H5v2h14V4z"/></symbol><symbol id="deposit" viewBox="0 0 24 24"><path d="M19.6 21H4.4C3.1 21 2 19.9 2 18.6V14h2v4.2c0 .6.4.8 1 .8h14c.6 0 1-.4 1-1v-4h2v4.6c0 1.3-1.1 2.4-2.4 2.4z"/><path d="M15.3 12.1L13.4 14v-4c0-2 0-4.9 2.4-7-3.4.6-5.1 3.2-5.2 7v4l-1.9-1.9L7 13l5 5 5-5-1.7-.9z"/></symbol><symbol id="devices" viewBox="0 0 24 24"><path d="M0 0h24v24H0z" fill="none"/><path d="M3 6h18V4H3c-1.1 0-2 .9-2 2v12c0 1.1.9 2 2 2h4v-2H3V6zm10 6H9v1.78c-.61.55-1 1.33-1 2.22s.39 1.67 1 2.22V20h4v-1.78c.61-.55 1-1.34 1-2.22s-.39-1.67-1-2.22V12zm-2 5.5c-.83 0-1.5-.67-1.5-1.5s.67-1.5 1.5-1.5 1.5.67 1.5 1.5-.67 1.5-1.5 1.5zM22 8h-6c-.5 0-1 .5-1 1v10c0 .5.5 1 1 1h6c.5 0 1-.5 1-1V9c0-.5-.5-1-1-1zm-1 10h-4v-8h4v8z"/></symbol><symbol id="download" viewBox="0 0 24 24"><path d="M19 9h-4V3H9v6H5l7 7 7-7zM5 18v2h14v-2H5z"/></symbol><symbol id="edit" viewBox="0 0 24 24"><path d="M3 17.25V21h3.75L17.81 9.94l-3.75-3.75L3 17.25zM20.71 7.04c.39-.39.39-1.02 0-1.41l-2.34-2.34c-.39-.39-1.02-.39-1.41 0l-1.83 1.83 3.75 3.75 1.83-1.83z"/></symbol><symbol id="ellipsis" viewBox="0 0 24 24"><path d="M6 10c-1.1 0-2 .9-2 2s.9 2 2 2 2-.9 2-2-.9-2-2-2zm12 0c-1.1 0-2 .9-2 2s.9 2 2 2 2-.9 2-2-.9-2-2-2zm-6 0c-1.1 0-2 .9-2 2s.9 2 2 2 2-.9 2-2-.9-2-2-2z"/></symbol><symbol id="email" viewBox="0 0 24 24"><path d="M20 4H4c-1.1 0-1.99.9-1.99 2L2 18c0 1.1.9 2 2 2h16c1.1 0 2-.9 2-2V6c0-1.1-.9-2-2-2zm0 4l-8 5-8-5V6l8 5 8-5v2z"/></symbol><symbol id="error" viewBox="0 0 24 24"><path d="M0 0h24v24H0z" fill="none"/><path d="M12 2C6.48 2 2 6.48 2 12s4.48 10 10 10 10-4.48 10-10S17.52 2 12 2zm1 15h-2v-2h2v2zm0-4h-2V7h2v6z"/></symbol><symbol id="file" viewBox="0 0 24 24"><path d="M0 0h24v24H0z" fill="none"/><path d="M14 2H6c-1.1 0-1.99.9-1.99 2L4 20c0 1.1.89 2 1.99 2H18c1.1 0 2-.9 2-2V8l-6-6zm2 16H8v-2h8v2zm0-4H8v-2h8v2zm-3-5V3.5L18.5 9H13z"/></symbol><symbol id="fingerprint" viewBox="0 0 24 24"><path d="M17.81 4.47c-.08 0-.16-.02-.23-.06C15.66 3.42 14 3 12.01 3c-1.98 0-3.86.47-5.57 1.41-.24.13-.54.04-.68-.2-.13-.24-.04-.55.2-.68C7.82 2.52 9.86 2 12.01 2c2.13 0 3.99.47 6.03 1.52.25.13.34.43.21.67-.09.18-.26.28-.44.28zM3.5 9.72c-.1 0-.2-.03-.29-.09-.23-.16-.28-.47-.12-.7.99-1.4 2.25-2.5 3.75-3.27C9.98 4.04 14 4.03 17.15 5.65c1.5.77 2.76 1.86 3.75 3.25.16.22.11.54-.12.7-.23.16-.54.11-.7-.12-.9-1.26-2.04-2.25-3.39-2.94-2.87-1.47-6.54-1.47-9.4.01-1.36.7-2.5 1.7-3.4 2.96-.08.14-.23.21-.39.21zm6.25 12.07c-.13 0-.26-.05-.35-.15-.87-.87-1.34-1.43-2.01-2.64-.69-1.23-1.05-2.73-1.05-4.34 0-2.97 2.54-5.39 5.66-5.39s5.66 2.42 5.66 5.39c0 .28-.22.5-.5.5s-.5-.22-.5-.5c0-2.42-2.09-4.39-4.66-4.39-2.57 0-4.66 1.97-4.66 4.39 0 1.44.32 2.77.93 3.85.64 1.15 1.08 1.64 1.85 2.42.19.2.19.51 0 .71-.11.1-.24.15-.37.15zm7.17-1.85c-1.19 0-2.24-.3-3.1-.89-1.49-1.01-2.38-2.65-2.38-4.39 0-.28.22-.5.5-.5s.5.22.5.5c0 1.41.72 2.74 1.94 3.56.71.48 1.54.71 2.54.71.24 0 .64-.03 1.04-.1.27-.05.53.13.58.41.05.27-.13.53-.41.58-.57.11-1.07.12-1.21.12zM14.91 22c-.04 0-.09-.01-.13-.02-1.59-.44-2.63-1.03-3.72-2.1-1.4-1.39-2.17-3.24-2.17-5.22 0-1.62 1.38-2.94 3.08-2.94 1.7 0 3.08 1.32 3.08 2.94 0 1.07.93 1.94 2.08 1.94s2.08-.87 2.08-1.94c0-3.77-3.25-6.83-7.25-6.83-2.84 0-5.44 1.58-6.61 4.03-.39.81-.59 1.76-.59 2.8 0 .78.07 2.01.67 3.61.1.26-.03.55-.29.64-.26.1-.55-.04-.64-.29-.49-1.31-.73-2.61-.73-3.96 0-1.2.23-2.29.68-3.24 1.33-2.79 4.28-4.6 7.51-4.6 4.55 0 8.25 3.51 8.25 7.83 0 1.62-1.38 2.94-3.08 2.94s-3.08-1.32-3.08-2.94c0-1.07-.93-1.94-2.08-1.94s-2.08.87-2.08 1.94c0 1.71.66 3.31 1.87 4.51.95.94 1.86 1.46 3.27 1.85.27.07.42.35.35.61-.05.23-.26.38-.47.38z"/><path d="M0 0h24v24H0z" fill="none"/></symbol><symbol id="flag" viewBox="0 0 24 24"><path d="M14.4 6L14 4H5v17h2v-7h5.6l.4 2h7V6z"/></symbol><symbol id="folder-open" viewBox="0 0 24 24"><path d="M20 6h-8l-2-2H4c-1.1 0-1.99.9-1.99 2L2 18c0 1.1.9 2 2 2h16c1.1 0 2-.9 2-2V8c0-1.1-.9-2-2-2zm0 12H4V8h16v10z"/></symbol><symbol id="folder" viewBox="0 0 24 24"><path d="M10 4H4c-1.1 0-1.99.9-1.99 2L2 18c0 1.1.9 2 2 2h16c1.1 0 2-.9 2-2V8c0-1.1-.9-2-2-2h-8l-2-2z"/></symbol><symbol id="gamepad" viewBox="0 0 24 24"><path d="M0 0h24v24H0z" fill="none"/><path d="M15 7.5V2H9v5.5l3 3 3-3zM7.5 9H2v6h5.5l3-3-3-3zM9 16.5V22h6v-5.5l-3-3-3 3zM16.5 9l-3 3 3 3H22V9h-5.5z"/></symbol><symbol id="grip" viewBox="0 0 24 24"><path d="M8 18h2v-2H8v2zm0-5h2v-2H8v2zm0-7v2h2V6H8zM13 18h2v-2h-2v2zm0-5h2v-2h-2v2zm0-7v2h2V6h-2z"/></symbol><symbol id="group" viewBox="0 0 24 24"><path d="M16 11c1.66 0 2.99-1.34 2.99-3S17.66 5 16 5c-1.66 0-3 1.34-3 3s1.34 3 3 3zm-8 0c1.66 0 2.99-1.34 2.99-3S9.66 5 8 5C6.34 5 5 6.34 5 8s1.34 3 3 3zm0 2c-2.33 0-7 1.17-7 3.5V19h14v-2.5c0-2.33-4.67-3.5-7-3.5zm8 0c-.29 0-.62.02-.97.05 1.16.84 1.97 1.97 1.97 3.45V19h6v-2.5c0-2.33-4.67-3.5-7-3.5z"/></symbol><symbol id="help-outline" viewBox="0 0 24 24"><path d="M0 0h24v24H0z" fill="none"/><path d="M11 18h2v-2h-2v2zm1-16C6.48 2 2 6.48 2 12s4.48 10 10 10 10-4.48 10-10S17.52 2 12 2zm0 18c-4.41 0-8-3.59-8-8s3.59-8 8-8 8 3.59 8 8-3.59 8-8 8zm0-14c-2.21 0-4 1.79-4 4h2c0-1.1.9-2 2-2s2 .9 2 2c0 2-3 1.75-3 5h2c0-2.25 3-2.5 3-5 0-2.21-1.79-4-4-4z"/></symbol><symbol id="help" viewBox="0 0 24 24"><path d="M12 2C6.48 2 2 6.48 2 12s4.48 10 10 10 10-4.48 10-10S17.52 2 12 2zm1 17h-2v-2h2v2zm2.07-7.75l-.9.92C13.45 12.9 13 13.5 13 15h-2v-.5c0-1.1.45-2.1 1.17-2.83l1.24-1.26c.37-.36.59-.86.59-1.41 0-1.1-.9-2-2-2s-2 .9-2 2H8c0-2.21 1.79-4 4-4s4 1.79 4 4c0 .88-.36 1.68-.93 2.25z"/></symbol><symbol id="history" viewBox="0 0 24 24"><path d="M13 3c-4.97 0-9 4.03-9 9H1l3.89 3.89.07.14L9 12H6c0-3.87 3.13-7 7-7s7 3.13 7 7-3.13 7-7 7c-1.93 0-3.68-.79-4.94-2.06l-1.42 1.42C8.27 19.99 10.51 21 13 21c4.97 0 9-4.03 9-9s-4.03-9-9-9zm-1 5v5l4.28 2.54.72-1.21-3.5-2.08V8H12z"/></symbol><symbol id="home" viewBox="0 0 24 24"><path d="M10 20v-6h4v6h5v-8h3L12 3 2 12h3v8z"/></symbol><symbol id="id" viewBox="0 0 24 24"><path d="M19 3h-4.18C14.4 1.84 13.3 1 12 1c-1.3 0-2.4.84-2.82 2H5c-1.1 0-2 .9-2 2v14c0 1.1.9 2 2 2h14c1.1 0 2-.9 2-2V5c0-1.1-.9-2-2-2zm-7 0c.55 0 1 .45 1 1s-.45 1-1 1-1-.45-1-1 .45-1 1-1zm0 4c1.66 0 3 1.34 3 3s-1.34 3-3 3-3-1.34-3-3 1.34-3 3-3zm6 12H6v-1.4c0-2 4-3.1 6-3.1s6 1.1 6 3.1V19z"/></symbol><symbol id="ipad" viewBox="0 0 24 24"><path d="M18.5 0h-14C3.12 0 2 1.12 2 2.5v19C2 22.88 3.12 24 4.5 24h14c1.38 0 2.5-1.12 2.5-2.5v-19C21 1.12 19.88 0 18.5 0zm-7 23c-.83 0-1.5-.67-1.5-1.5s.67-1.5 1.5-1.5 1.5.67 1.5 1.5-.67 1.5-1.5 1.5zm7.5-4H4V3h15v16z"/></symbol><symbol id="iphone" viewBox="0 0 24 24"><path d="M15.5 1h-8C6.12 1 5 2.12 5 3.5v17C5 21.88 6.12 23 7.5 23h8c1.38 0 2.5-1.12 2.5-2.5v-17C18 2.12 16.88 1 15.5 1zm-4 21c-.83 0-1.5-.67-1.5-1.5s.67-1.5 1.5-1.5 1.5.67 1.5 1.5-.67 1.5-1.5 1.5zm4.5-4H7V4h9v14z"/><path d="M0 0h24v24H0z" fill="none"/></symbol><symbol id="key" viewBox="0 0 24 24"><path d="M12.65 10C11.83 7.67 9.61 6 7 6c-3.31 0-6 2.69-6 6s2.69 6 6 6c2.61 0 4.83-1.67 5.65-4H17v4h4v-4h2v-4H12.65zM7 14c-1.1 0-2-.9-2-2s.9-2 2-2 2 .9 2 2-.9 2-2 2z"/></symbol><symbol id="label-outline" viewBox="0 0 24 24"><path d="M0 0h24v24H0z" fill="none"/><path d="M17.63 5.84C17.27 5.33 16.67 5 16 5L5 5.01C3.9 5.01 3 5.9 3 7v10c0 1.1.9 1.99 2 1.99L16 19c.67 0 1.27-.33 1.63-.84L22 12l-4.37-6.16zM16 17H5V7h11l3.55 5L16 17z"/></symbol><symbol id="label" viewBox="0 0 24 24"><path d="M0 0h24v24H0z" fill="none"/><path d="M17.63 5.84C17.27 5.33 16.67 5 16 5L5 5.01C3.9 5.01 3 5.9 3 7v10c0 1.1.9 1.99 2 1.99L16 19c.67 0 1.27-.33 1.63-.84L22 12l-4.37-6.16z"/></symbol><symbol id="language" viewBox="0 0 24 24"><path d="M11.99 2C6.47 2 2 6.48 2 12s4.47 10 9.99 10C17.52 22 22 17.52 22 12S17.52 2 11.99 2zm6.93 6h-2.95c-.32-1.25-.78-2.45-1.38-3.56 1.84.63 3.37 1.91 4.33 3.56zM12 4.04c.83 1.2 1.48 2.53 1.91 3.96h-3.82c.43-1.43 1.08-2.76 1.91-3.96zM4.26 14C4.1 13.36 4 12.69 4 12s.1-1.36.26-2h3.38c-.08.66-.14 1.32-.14 2 0 .68.06 1.34.14 2H4.26zm.82 2h2.95c.32 1.25.78 2.45 1.38 3.56-1.84-.63-3.37-1.9-4.33-3.56zm2.95-8H5.08c.96-1.66 2.49-2.93 4.33-3.56C8.81 5.55 8.35 6.75 8.03 8zM12 19.96c-.83-1.2-1.48-2.53-1.91-3.96h3.82c-.43 1.43-1.08 2.76-1.91 3.96zM14.34 14H9.66c-.09-.66-.16-1.32-.16-2 0-.68.07-1.35.16-2h4.68c.09.65.16 1.32.16 2 0 .68-.07 1.34-.16 2zm.25 5.56c.6-1.11 1.06-2.31 1.38-3.56h2.95c-.96 1.65-2.49 2.93-4.33 3.56zM16.36 14c.08-.66.14-1.32.14-2 0-.68-.06-1.34-.14-2h3.38c.16.64.26 1.31.26 2s-.1 1.36-.26 2h-3.38z"/></symbol><symbol id="launch" viewBox="0 0 24 24"><path d="M19 19H5V5h7V3H5c-1.11 0-2 .9-2 2v14c0 1.1.89 2 2 2h14c1.1 0 2-.9 2-2v-7h-2v7zM14 3v2h3.59l-9.83 9.83 1.41 1.41L19 6.41V10h2V3h-7z"/></symbol><symbol id="layers" viewBox="0 0 24 24"><path d="M11.99 18.54l-7.37-5.73L3 14.07l9 7 9-7-1.63-1.27-7.38 5.74zM12 16l7.36-5.73L21 9l-9-7-9 7 1.63 1.27L12 16z"/></symbol><symbol id="line-add" viewBox="0 0 24 24"><path d="M14 10H2v2h12v-2zm0-4H2v2h12V6zm4 8v-4h-2v4h-4v2h4v4h2v-4h4v-2h-4zM2 16h8v-2H2v2z"/></symbol><symbol id="line" viewBox="0 0 24 24"><path d="M23 13H2v-2h21v2z"/></symbol><symbol id="link" viewBox="0 0 24 24"><path d="M3.9 12c0-1.71 1.39-3.1 3.1-3.1h4V7H7c-2.76 0-5 2.24-5 5s2.24 5 5 5h4v-1.9H7c-1.71 0-3.1-1.39-3.1-3.1zM8 13h8v-2H8v2zm9-6h-4v1.9h4c1.71 0 3.1 1.39 3.1 3.1s-1.39 3.1-3.1 3.1h-4V17h4c2.76 0 5-2.24 5-5s-2.24-5-5-5z"/></symbol><symbol id="linux" viewBox="0 0 32 32"><path d="M15.6 8.1c0 .1-.1.1-.1.1h-.1c-.1 0-.1-.1-.2-.2 0 0-.1-.1-.1-.2s0-.1.1-.1l.2.1c.1.1.2.2.2.3m-1.9-1c0-.5-.2-.8-.5-.8 0 0 0 .1-.1.1v.2h.3c0 .2.1.3.1.5h.2m3.6-.5c.2 0 .3.2.4.5h.2c-.1-.1-.1-.2-.1-.3 0-.1 0-.2-.1-.3-.1-.1-.2-.2-.3-.2 0 0-.1.1-.2.1 0 .1.1.1.1.2m-3.1 1.6c-.1 0-.1 0-.1-.1s0-.2.1-.3c.2 0 .3-.1.3-.1.1 0 .1.1.1.1 0 .1-.1.2-.3.4h-.1m-1.1-.1c-.4-.2-.5-.5-.5-1 0-.3 0-.5.2-.7.1-.2.3-.3.5-.3s.3.1.5.3c.1.3.2.6.2.9v.2h.1v-.1c.1 0 .1-.2.1-.6 0-.3 0-.6-.2-.9-.2-.3-.4-.5-.8-.5-.3 0-.6.2-.7.5-.2.4-.2.7-.2 1.2 0 .4.1.8.6 1.2 0-.1.1-.1.2-.2m12.8 14.5c.1 0 .1 0 .1-.1 0-.2-.1-.5-.4-.8-.3-.3-.8-.5-1.4-.6h-.4c-.1 0-.3 0-.4-.1.3-1 .4-1.8.4-2.5 0-1-.2-1.7-.6-2.4-.4-.6-.8-.9-1.3-1-.1.1-.1.1-.1.2.5.2 1 .6 1.3 1.2.3.7.4 1.3.4 2.1 0 .6-.1 1.4-.5 2.5-.4.2-.8.5-1.1 1.1 0 .1 0 .1.1.1 0 0 .1-.1.2-.3l.5-.5c.3-.2.5-.3.8-.3.5 0 1 .1 1.3.2.4.1.6.3.7.4.1.2.2.3.3.4 0 .3.1.4.1.4M16.5 7.7c-.1-.1-.1-.3-.1-.5 0-.4 0-.6.2-.9.2-.2.4-.3.6-.3.3 0 .5.2.7.4.1.3.2.5.2.8 0 .5-.2.8-.6.9 0 0 .1.1.2.1.2 0 .3.1.5.2.1-.6.2-1 .2-1.5 0-.6-.1-1-.3-1.3-.3-.3-.6-.4-1-.4-.3 0-.6.1-.9.3-.2.3-.3.5-.3.8 0 .5.1.9.3 1.3.1 0 .2.1.3.1m1.2 1.7c-1.3.9-2.4 1.3-3.2 1.3-.7 0-1.4-.3-2.1-.8.1.2.2.4.3.5l.6.6c.4.4.9.6 1.4.6.7 0 1.5-.4 2.6-1.1l.9-.6c.2-.2.4-.4.4-.7 0-.1 0-.2-.1-.2 0-.3-.5-.6-1.5-.9-.9-.4-1.6-.6-2.1-.6-.3 0-.8.2-1.5.6-.6.4-1 .8-1 1.2 0 0 .1.1.2.3.6.5 1.2.8 1.8.8.8 0 1.8-.4 3.2-1.4v.2c.1.1.1.2.1.2m2.4 20.7c.4.8 1.1 1.2 1.9 1.2.2 0 .4 0 .6-.1.2 0 .4-.1.5-.2.1-.1.2-.1.3-.2.2-.1.2-.1.3-.2l1.7-1.5c.4-.3.8-.6 1.3-.9l1-.5c.3-.1.5-.2.7-.4.1-.2.2-.3.2-.6s-.2-.5-.4-.7c-.2-.2-.4-.3-.6-.3-.2-.1-.4-.2-.7-.5-.2-.3-.4-.6-.5-1.1l-.1-.6c-.1-.3-.1-.5-.2-.6H26c-.1 0-.3.1-.4.3l-.6.6c-.1.2-.4.4-.6.6-.3.2-.6.3-.8.3-.8 0-1.2-.2-1.5-.7-.2-.3-.3-.7-.4-1.1-.2-.2-.3-.3-.5-.3-.5 0-.7.5-.7 1.6V27.3c0 .1-.1.3-.1.6-.1.3-.1.7-.1 1.1l-.2 1.1m-14.9-.6c1 .1 2.1.4 3.3.9 1.2.5 2 .7 2.3.7.7 0 1.3-.3 1.8-.9.1-.2.1-.4.1-.7 0-1-.6-2.2-1.8-3.7l-.7-.9c-.1-.2-.3-.5-.5-.9s-.4-.7-.6-.9c-.1-.2-.3-.5-.6-.7-.3-.2-.6-.4-.9-.5-.4.1-.7.2-.9.4s-.2.4-.2.6c0 .2-.1.4-.2.4-.1.1-.3.1-.5.2h-.6c-.5 0-.9.1-1.1.2-.3.3-.4.6-.4 1 0 .2 0 .4.1.8s.1.7.1.9c0 .4-.1.8-.4 1.3-.3.4-.4.8-.4 1 .2.4.9.7 2.1.8m3.4-9.3c0-.7.2-1.5.6-2.4.4-.9.7-1.5 1.1-1.9 0-.1-.1-.1-.2-.1l-.1-.2c-.3.3-.7 1-1.1 2.1-.4.9-.7 1.8-.7 2.4 0 .5.1.9.3 1.2.2.3.8.8 1.6 1.5l1.1.7c1.2 1 1.8 1.7 1.8 2.1 0 .2-.1.4-.4.7-.2.2-.5.4-.7.4v.1l.3.6c.4.6 1.4.9 2.6.9 2.3 0 4-.9 5.3-2.8 0-.5 0-.8-.1-1v-.4c0-.7.1-1.2.3-1.5.2-.3.4-.5.7-.5.2 0 .4.1.6.2.1-.8.1-1.5.1-2.1 0-.9 0-1.7-.2-2.4-.1-.6-.3-1.1-.5-1.5l-.6-.9c-.2-.3-.3-.6-.5-.9-.1-.4-.2-.7-.2-1.2-.3-.5-.5-1-.8-1.5-.2-.5-.4-1-.6-1.4l-.9.7c-1 .7-1.8 1-2.6 1-.6 0-1.1-.1-1.4-.5l-.6-.5c0 .3-.1.7-.3 1.1l-.6 1.2c-.3.7-.4 1.1-.5 1.4 0 .2-.1.4-.1.4l-.8 1.5c-.8 1.5-1.3 3-1.3 4.1 0 .2 0 .5.1.7-.5-.3-.7-.7-.7-1.3m7.4 9.7c-1.3 0-2.4.2-3.1.5-.5.6-1.1.9-1.9.9-.5 0-1.3-.2-2.4-.6-1.1-.4-2-.7-2.9-.8-.1 0-.3-.1-.6-.1s-.6-.1-.8-.1c-.2 0-.5-.1-.7-.2-.3-.1-.5-.2-.6-.3-.1-.1-.2-.3-.2-.4 0-.2 0-.3.1-.5s.2-.3.3-.4c.1-.1.1-.2.2-.3.1-.1.1-.2.1-.3 0-.1.1-.2.1-.3v-.3s0-.4-.1-1c-.1-.5-.1-.9-.1-1 0-.5.1-.8.3-1.1.2-.3.4-.4.7-.4h1.2c.1 0 .2-.1.5-.2.1-.2.1-.3.2-.4.1-.1.1-.2.1-.3 0-.1 0-.1.1-.2 0-.1.1-.2.2-.2-.1-.1-.1-.2-.1-.4v-.3c0-.4.2-.9.5-1.6l.4-.6.7-1.4c.2-.4.4-1 .6-1.8.2-.7.6-1.4 1.2-2.2l.8-.9c.5-.6.9-1.1 1.1-1.5.2-.4.3-.9.3-1.3 0-.2-.1-.8-.2-1.8s-.2-2.1-.2-3c0-.7.1-1.2.2-1.7s.4-1 .7-1.4c.3-.4.7-.8 1.3-1 .6-.2 1.3-.3 2.2-.3.3 0 .6 0 .9.1.3 0 .7.1 1.2.3.4.2.8.4 1.1.7.2.2.6.7.9 1.2.2.6.4 1.2.5 2.1.1.5.1 1 .2 1.7 0 .6.1 1 .1 1.3.1.3.1.7.2 1.2.1.4.2.8.4 1.1.2.4.4.8.7 1.2.3.5.7 1 1.1 1.6.9 1 1.6 2.2 2.1 3.3.5 1 .8 2.4.8 3.8 0 .7-.1 1.4-.3 2.1.2 0 .3.1.4.2s.2.5.3.9l.1.8c.1.2.2.4.5.6.2.2.4.3.7.5.2.1.5.2.7.4.2.2.3.4.3.6 0 .3-.1.6-.3.8-.2.2-.4.3-.7.4l-1.2.6c-.5.3-1 .7-1.5 1.1l-1 .9c-.4.4-.8.7-1.1.9-.3.2-.7.3-1.1.3l-.7-.1c-.8-.2-1.3-.6-1.6-1.3-1.8 0-3.1-.1-3.9-.1"/></symbol><symbol id="list" viewBox="0 0 24 24"><path d="M3 13h2v-2H3v2zm0 4h2v-2H3v2zm0-8h2V7H3v2zm4 4h14v-2H7v2zm0 4h14v-2H7v2zM7 7v2h14V7H7z"/></symbol><symbol id="lock-alt" viewBox="0 0 24 24"><path d="M18 8h-1V6c0-2.76-2.24-5-5-5S7 3.24 7 6v2H6c-1.1 0-2 .9-2 2v10c0 1.1.9 2 2 2h12c1.1 0 2-.9 2-2V10c0-1.1-.9-2-2-2zm-6-5.1c1.71 0 3.1 1.39 3.1 3.1v2H9V6h-.1c0-1.71 1.39-3.1 3.1-3.1zM18 20H6V10h12v10zm-6-3c1.1 0 2-.9 2-2s-.9-2-2-2-2 .9-2 2 .9 2 2 2z"/></symbol><symbol id="lock" viewBox="0 0 24 24"><path d="M18 8h-1V6c0-2.76-2.24-5-5-5S7 3.24 7 6v2H6c-1.1 0-2 .9-2 2v10c0 1.1.9 2 2 2h12c1.1 0 2-.9 2-2V10c0-1.1-.9-2-2-2zm-6 9c-1.1 0-2-.9-2-2s.9-2 2-2 2 .9 2 2-.9 2-2 2zm3.1-9H8.9V6c0-1.71 1.39-3.1 3.1-3.1 1.71 0 3.1 1.39 3.1 3.1v2z"/></symbol><symbol id="menu" viewBox="0 0 24 24"><path d="M3 18h18v-2H3v2zm0-5h18v-2H3v2zm0-7v2h18V6H3z"/></symbol><symbol id="message" viewBox="0 0 24 24"><path d="M20 2H4c-1.1 0-1.99.9-1.99 2L2 22l4-4h14c1.1 0 2-.9 2-2V4c0-1.1-.9-2-2-2zm-2 12H6v-2h12v2zm0-3H6V9h12v2zm0-3H6V6h12v2z"/></symbol><symbol id="mobile" viewBox="0 0 24 24"><path d="M16 1H8C6.34 1 5 2.34 5 4v16c0 1.66 1.34 3 3 3h8c1.66 0 3-1.34 3-3V4c0-1.66-1.34-3-3-3zm-2 20h-4v-1h4v1zm3.25-3H6.75V4h10.5v14z"/></symbol><symbol id="money-alt" viewBox="0 0 24 24"><path d="M12 2C6.48 2 2 6.48 2 12s4.48 10 10 10 10-4.48 10-10S17.52 2 12 2zm1.41 16.09V20h-2.67v-1.93c-1.71-.36-3.16-1.46-3.27-3.4h1.96c.1 1.05.82 1.87 2.65 1.87 1.96 0 2.4-.98 2.4-1.59 0-.83-.44-1.61-2.67-2.14-2.48-.6-4.18-1.62-4.18-3.67 0-1.72 1.39-2.84 3.11-3.21V4h2.67v1.95c1.86.45 2.79 1.86 2.85 3.39H14.3c-.05-1.11-.64-1.87-2.22-1.87-1.5 0-2.4.68-2.4 1.64 0 .84.65 1.39 2.67 1.91s4.18 1.39 4.18 3.91c-.01 1.83-1.38 2.83-3.12 3.16z"/><path d="M0 0h24v24H0z" fill="none"/></symbol><symbol id="money" viewBox="0 0 24 24"><path d="M11.8 10.9c-2.27-.59-3-1.2-3-2.15 0-1.09 1.01-1.85 2.7-1.85 1.78 0 2.44.85 2.5 2.1h2.21c-.07-1.72-1.12-3.3-3.21-3.81V3h-3v2.16c-1.94.42-3.5 1.68-3.5 3.61 0 2.31 1.91 3.46 4.7 4.13 2.5.6 3 1.48 3 2.41 0 .69-.49 1.79-2.7 1.79-2.06 0-2.87-.92-2.98-2.1h-2.2c.12 2.19 1.76 3.42 3.68 3.83V21h3v-2.15c1.95-.37 3.5-1.5 3.5-3.55 0-2.84-2.43-3.81-4.7-4.4z"/><path d="M0 0h24v24H0z" fill="none"/></symbol><symbol id="no-wifi" viewBox="0 0 26 24"><path fill-opacity=".3" d="M24.24 8l1.35-1.68C25.1 5.96 20.26 2 13 2S.9 5.96.42 6.32l12.57 15.66.01.02.01-.01L20 13.28V8h4.24z"/><path d="M22 22h2v-2h-2v2zm0-12v8h2v-8h-2z"/></symbol><symbol id="note" viewBox="0 0 24 24"><path d="M14 17H4v2h10v-2zm6-8H4v2h16V9zM4 15h16v-2H4v2zM4 5v2h16V5H4z"/><path d="M0 0h24v24H0z" fill="none"/></symbol><symbol id="notifications-off" viewBox="0 0 24 24"><path d="M0 0h24v24H0z" fill="none"/><path d="M11.5 22c1.1 0 2-.9 2-2h-4c0 1.1.9 2 2 2zM18 10.5c0-3.07-2.13-5.64-5-6.32V3.5c0-.83-.67-1.5-1.5-1.5S10 2.67 10 3.5v.68c-.51.12-.99.32-1.45.56L18 14.18V10.5zm-.27 8.5l2 2L21 19.73 4.27 3 3 4.27l2.92 2.92C5.34 8.16 5 9.29 5 10.5V16l-2 2v1h14.73z"/></symbol><symbol id="notifications" viewBox="0 0 24 24"><path d="M11.5 22c1.1 0 2-.9 2-2h-4c0 1.1.9 2 2 2zm6.5-6v-5.5c0-3.07-2.13-5.64-5-6.32V3.5c0-.83-.67-1.5-1.5-1.5S10 2.67 10 3.5v.68c-2.87.68-5 3.25-5 6.32V16l-2 2v1h17v-1l-2-2z"/><path d="M0 0h24v24H0z" fill="none"/></symbol><symbol id="number" viewBox="0 0 24 24"><path d="M6.8 18.3V8.1c-.5.2-2.3 1.4-2.9 1.8V7.8c.6-.5 2.4-1.6 3-1.9H9v12.4H6.8zM13.1 15.2c.1.8.8 1.6 2.1 1.6 1.9 0 2.7-2 2.7-4.6h-.1c-.3.9-1.3 1.8-3.1 1.8-2 0-3.9-1.4-3.9-4.1 0-2.7 2.1-4.3 4.4-4.3 2.9 0 4.7 1.9 4.7 6.3 0 4.1-1.8 6.6-4.8 6.6-2.7 0-4-1.8-4.1-3.4h2.1zm2.2-7.8c-1.2 0-2.3.8-2.3 2.5 0 1.6 1.1 2.4 2.3 2.4 1.3 0 2.4-1 2.4-2.4 0-1.6-1.1-2.5-2.4-2.5z"/></symbol><symbol id="paragraph" viewBox="0 0 24 24"><path d="M9 13.9V21h3V5h3v16h3V5h3V3H9.1C5.9 3 3.3 5.3 3.3 8.4S6 13.9 9 13.9z"/></symbol><symbol id="password" viewBox="0 0 24 24"><path d="M8 12.7C8 14.5 6.5 16 4.7 16h-.4C2.5 16 1 14.5 1 12.7v-.3C1 10.5 2.5 9 4.3 9h.3C6.5 9 8 10.5 8 12.3v.4zM16 12.7c0 1.8-1.5 3.3-3.3 3.3h-.3C10.5 16 9 14.5 9 12.7v-.3C9 10.5 10.5 9 12.3 9h.3c1.8 0 3.3 1.5 3.3 3.3v.4zM24 12.7c0 1.8-1.5 3.3-3.3 3.3h-.3c-1.8 0-3.3-1.5-3.3-3.3v-.3c0-1.8 1.5-3.3 3.3-3.3h.3c1.8 0 3.3 1.5 3.3 3.3v.3z"/></symbol><symbol id="payment" viewBox="0 0 24 24"><path d="M0 0h24v24H0z" fill="none"/><path d="M20 4H4c-1.11 0-1.99.89-1.99 2L2 18c0 1.11.89 2 2 2h16c1.11 0 2-.89 2-2V6c0-1.11-.89-2-2-2zm0 14H4v-6h16v6zm0-10H4V6h16v2z"/></symbol><symbol id="person-add" viewBox="0 0 24 24"><path d="M15 12c2.21 0 4-1.79 4-4s-1.79-4-4-4-4 1.79-4 4 1.79 4 4 4zm-9-2V7H4v3H1v2h3v3h2v-3h3v-2H6zm9 4c-2.67 0-8 1.34-8 4v2h16v-2c0-2.66-5.33-4-8-4z"/></symbol><symbol id="person" viewBox="0 0 24 24"><path d="M12 12c2.21 0 4-1.79 4-4s-1.79-4-4-4-4 1.79-4 4 1.79 4 4 4zm0 2c-2.67 0-8 1.34-8 4v2h16v-2c0-2.66-5.33-4-8-4z"/></symbol><symbol id="phone" viewBox="0 0 24 24"><path d="M0 0h24v24H0z" fill="none"/><path d="M6.62 10.79c1.44 2.83 3.76 5.14 6.59 6.59l2.2-2.2c.27-.27.67-.36 1.02-.24 1.12.37 2.33.57 3.57.57.55 0 1 .45 1 1V20c0 .55-.45 1-1 1-9.39 0-17-7.61-17-17 0-.55.45-1 1-1h3.5c.55 0 1 .45 1 1 0 1.25.2 2.45.57 3.57.11.35.03.74-.25 1.02l-2.2 2.2z"/></symbol><symbol id="photo-library" viewBox="0 0 24 24"><path d="M22 16V4c0-1.1-.9-2-2-2H8c-1.1 0-2 .9-2 2v12c0 1.1.9 2 2 2h12c1.1 0 2-.9 2-2zm-11-4l2.03 2.71L16 11l4 5H8l3-4zM2 6v14c0 1.1.9 2 2 2h14v-2H4V6H2z"/></symbol><symbol id="photo-resize" viewBox="0 0 24 24"><path d="M24 24H0V0h24v24z" fill="none"/><path d="M21 15h2v2h-2v-2zm0-4h2v2h-2v-2zm2 8h-2v2c1 0 2-1 2-2zM13 3h2v2h-2V3zm8 4h2v2h-2V7zm0-4v2h2c0-1-1-2-2-2zM1 7h2v2H1V7zm16-4h2v2h-2V3zm0 16h2v2h-2v-2zM3 3C2 3 1 4 1 5h2V3zm6 0h2v2H9V3zM5 3h2v2H5V3zm-4 8v8c0 1.1.9 2 2 2h12V11H1zm2 8l2.5-3.21 1.79 2.15 2.5-3.22L13 19H3z"/></symbol><symbol id="photo" viewBox="0 0 24 24"><path d="M21 19V5c0-1.1-.9-2-2-2H5c-1.1 0-2 .9-2 2v14c0 1.1.9 2 2 2h14c1.1 0 2-.9 2-2zM8.5 13.5l2.5 3.01L14.5 12l4.5 6H5l3.5-4.5z"/></symbol><symbol id="place-off" viewBox="0 0 24 24"><path d="M0 0h24v24H0zm11.75 11.47l-.11-.11z" fill="none"/><path d="M12 6.5c1.38 0 2.5 1.12 2.5 2.5 0 .74-.33 1.39-.83 1.85l3.63 3.63c.98-1.86 1.7-3.8 1.7-5.48 0-3.87-3.13-7-7-7-1.98 0-3.76.83-5.04 2.15l3.19 3.19c.46-.52 1.11-.84 1.85-.84zm4.37 9.6l-4.63-4.63-.11-.11L3.27 3 2 4.27l3.18 3.18C5.07 7.95 5 8.47 5 9c0 5.25 7 13 7 13s1.67-1.85 3.38-4.35L18.73 21 20 19.73l-3.63-3.63z"/></symbol><symbol id="place" viewBox="0 0 24 24"><path d="M12 2C8.13 2 5 5.13 5 9c0 5.25 7 13 7 13s7-7.75 7-13c0-3.87-3.13-7-7-7zm0 9.5c-1.38 0-2.5-1.12-2.5-2.5s1.12-2.5 2.5-2.5 2.5 1.12 2.5 2.5-1.12 2.5-2.5 2.5z"/></symbol><symbol id="print" viewBox="0 0 24 24"><path d="M19 8H5c-1.66 0-3 1.34-3 3v6h4v4h12v-4h4v-6c0-1.66-1.34-3-3-3zm-3 11H8v-5h8v5zm3-7c-.55 0-1-.45-1-1s.45-1 1-1 1 .45 1 1-.45 1-1 1zm-1-9H6v4h12V3z"/></symbol><symbol id="push-notification" viewBox="0 0 24 24"><path d="M2 16v2c2.76 0 5 2.24 5 5h2c0-3.87-3.13-7-7-7zm0 4v3h3c0-1.66-1.34-3-3-3zm0-8v2c4.97 0 9 4.03 9 9h2c0-6.08-4.92-11-11-11zM17 1.01L7 1c-1.1 0-2 .9-2 2v7.37c.69.16 1.36.37 2 .64V5h10v13h-3.03c.52 1.25.84 2.59.95 4H17c1.1 0 2-.9 2-2V3c0-1.1-.9-1.99-2-1.99z"/></symbol><symbol id="radio" viewBox="0 0 24 24"><path d="M12 7c-2.76 0-5 2.24-5 5s2.24 5 5 5 5-2.24 5-5-2.24-5-5-5zm0-5C6.48 2 2 6.48 2 12s4.48 10 10 10 10-4.48 10-10S17.52 2 12 2zm0 18c-4.42 0-8-3.58-8-8s3.58-8 8-8 8 3.58 8 8-3.58 8-8 8z"/><path d="M0 0h24v24H0z" fill="none"/></symbol><symbol id="receipt" viewBox="0 0 24 24"><path d="M18 17H6v-2h12v2zm0-4H6v-2h12v2zm0-4H6V7h12v2zM3 22l1.5-1.5L6 22l1.5-1.5L9 22l1.5-1.5L12 22l1.5-1.5L15 22l1.5-1.5L18 22l1.5-1.5L21 22V2l-1.5 1.5L18 2l-1.5 1.5L15 2l-1.5 1.5L12 2l-1.5 1.5L9 2 7.5 3.5 6 2 4.5 3.5 3 2v20z"/><path d="M0 0h24v24H0z" fill="none"/></symbol><symbol id="remove" viewBox="0 0 24 24"><path d="M19 13H5v-2h14v2z"/><path d="M0 0h24v24H0z" fill="none"/></symbol><symbol id="reply" viewBox="0 0 24 24"><path d="M10 9V5l-7 7 7 7v-4.1c5 0 8.5 1.6 11 5.1-1-5-4-10-11-11z"/><path d="M0 0h24v24H0z" fill="none"/></symbol><symbol id="restore-page" viewBox="0 0 24 24"><path d="M14 2H6c-1.1 0-1.99.9-1.99 2L4 20c0 1.1.89 2 1.99 2H18c1.1 0 2-.9 2-2V8l-6-6zm-2 16c-2.05 0-3.81-1.24-4.58-3h1.71c.63.9 1.68 1.5 2.87 1.5 1.93 0 3.5-1.57 3.5-3.5S13.93 9.5 12 9.5c-1.35 0-2.52.78-3.1 1.9l1.6 1.6h-4V9l1.3 1.3C8.69 8.92 10.23 8 12 8c2.76 0 5 2.24 5 5s-2.24 5-5 5z"/><path d="M0 0h24v24H0z" fill="none"/></symbol><symbol id="save" viewBox="0 0 24 24"><path d="M0 0h24v24H0z" fill="none"/><path d="M17 3H5c-1.11 0-2 .9-2 2v14c0 1.1.89 2 2 2h14c1.1 0 2-.9 2-2V7l-4-4zm-5 16c-1.66 0-3-1.34-3-3s1.34-3 3-3 3 1.34 3 3-1.34 3-3 3zm3-10H5V5h10v4z"/></symbol><symbol id="schedule" viewBox="0 0 24 24"><path fill-opacity=".9" d="M11.99 2C6.47 2 2 6.48 2 12s4.47 10 9.99 10C17.52 22 22 17.52 22 12S17.52 2 11.99 2zM12 20c-4.42 0-8-3.58-8-8s3.58-8 8-8 8 3.58 8 8-3.58 8-8 8zm.5-13H11v6l5.25 3.15.75-1.23-4.5-2.67z"/></symbol><symbol id="search-history" viewBox="0 0 24 24"><path d="M0 0h24v24H0V0zm0 0h24v24H0V0z" fill="none"/><path d="M17.01 14h-.8l-.27-.27c.98-1.14 1.57-2.61 1.57-4.23 0-3.59-2.91-6.5-6.5-6.5s-6.5 3-6.5 6.5H2l3.84 4 4.16-4H6.51C6.51 7 8.53 5 11.01 5s4.5 2.01 4.5 4.5c0 2.48-2.02 4.5-4.5 4.5-.65 0-1.26-.14-1.82-.38L7.71 15.1c.97.57 2.09.9 3.3.9 1.61 0 3.08-.59 4.22-1.57l.27.27v.79l5.01 4.99L22 19l-4.99-5z"/></symbol><symbol id="search" viewBox="0 0 24 24"><path d="M15.5 14h-.79l-.28-.27C15.41 12.59 16 11.11 16 9.5 16 5.91 13.09 3 9.5 3S3 5.91 3 9.5 5.91 16 9.5 16c1.61 0 3.09-.59 4.23-1.57l.27.28v.79l5 4.99L20.49 19l-4.99-5zm-6 0C7.01 14 5 11.99 5 9.5S7.01 5 9.5 5 14 7.01 14 9.5 11.99 14 9.5 14z"/></symbol><symbol id="security" viewBox="0 0 24 24"><path d="M12 1L3 5v6c0 5.55 3.84 10.74 9 12 5.16-1.26 9-6.45 9-12V5l-9-4zm0 10.99h7c-.53 4.12-3.28 7.79-7 8.94V12H5V6.3l7-3.11v8.8z"/></symbol><symbol id="settings" viewBox="0 0 24 24"><path d="M19.43 12.98c.04-.32.07-.64.07-.98s-.03-.66-.07-.98l2.11-1.65c.19-.15.24-.42.12-.64l-2-3.46c-.12-.22-.39-.3-.61-.22l-2.49 1c-.52-.4-1.08-.73-1.69-.98l-.38-2.65C14.46 2.18 14.25 2 14 2h-4c-.25 0-.46.18-.49.42l-.38 2.65c-.61.25-1.17.59-1.69.98l-2.49-1c-.23-.09-.49 0-.61.22l-2 3.46c-.13.22-.07.49.12.64l2.11 1.65c-.04.32-.07.65-.07.98s.03.66.07.98l-2.11 1.65c-.19.15-.24.42-.12.64l2 3.46c.12.22.39.3.61.22l2.49-1c.52.4 1.08.73 1.69.98l.38 2.65c.03.24.24.42.49.42h4c.25 0 .46-.18.49-.42l.38-2.65c.61-.25 1.17-.59 1.69-.98l2.49 1c.23.09.49 0 .61-.22l2-3.46c.12-.22.07-.49-.12-.64l-2.11-1.65zM12 15.5c-1.93 0-3.5-1.57-3.5-3.5s1.57-3.5 3.5-3.5 3.5 1.57 3.5 3.5-1.57 3.5-3.5 3.5z"/></symbol><symbol id="sms" viewBox="0 0 24 24"><path d="M20 2H4c-1.1 0-1.99.9-1.99 2L2 22l4-4h14c1.1 0 2-.9 2-2V4c0-1.1-.9-2-2-2zM9 11H7V9h2v2zm4 0h-2V9h2v2zm4 0h-2V9h2v2z"/><path d="M0 0h24v24H0z" fill="none"/></symbol><symbol id="star-alt" viewBox="0 0 24 24"><path d="M0 0h24v24H0z" fill="none"/><path d="M12 17.27L18.18 21l-1.64-7.03L22 9.24l-7.19-.61L12 2 9.19 8.63 2 9.24l5.46 4.73L5.82 21z"/><path d="M0 0h24v24H0z" fill="none"/></symbol><symbol id="star-half" viewBox="0 0 24 24"><path d="M22 9.74l-7.19-.62L12 2.5 9.19 9.13 2 9.74l5.46 4.73-1.64 7.03L12 17.77l6.18 3.73-1.63-7.03L22 9.74zM12 15.9V6.6l1.71 4.04 4.38.38-3.32 2.88 1 4.28L12 15.9z"/><path d="M0 0h24v24H0z" fill="none"/></symbol><symbol id="star" viewBox="0 0 24 24"><path d="M0 0h24v24H0z" fill="none"/><path d="M11.99 2C6.47 2 2 6.48 2 12s4.47 10 9.99 10C17.52 22 22 17.52 22 12S17.52 2 11.99 2zm4.24 16L12 15.45 7.77 18l1.12-4.81-3.73-3.23 4.92-.42L12 5l1.92 4.53 4.92.42-3.73 3.23L16.23 18z"/></symbol><symbol id="store" viewBox="0 0 24 24"><path d="M20 4H4v2h16V4zm1 10v-2l-1-5H4l-1 5v2h1v6h10v-6h4v6h2v-6h1zm-9 4H6v-4h6v4z"/></symbol><symbol id="style" viewBox="0 0 24 24"><path d="M2.53 19.65l1.34.56v-9.03l-2.43 5.86c-.41 1.02.08 2.19 1.09 2.61zm19.5-3.7L17.07 3.98c-.31-.75-1.04-1.21-1.81-1.23-.26 0-.53.04-.79.15L7.1 5.95c-.75.31-1.21 1.03-1.23 1.8-.01.27.04.54.15.8l4.96 11.97c.31.76 1.05 1.22 1.83 1.23.26 0 .52-.05.77-.15l7.36-3.05c1.02-.42 1.51-1.59 1.09-2.6zM7.88 8.75c-.55 0-1-.45-1-1s.45-1 1-1 1 .45 1 1-.45 1-1 1zm-2 11c0 1.1.9 2 2 2h1.45l-3.45-8.34v6.34z"/></symbol><symbol id="supervisor" viewBox="0 0 24 24"><path d="M0 0h24v24H0z" fill="none"/><path d="M16.5 12c1.38 0 2.49-1.12 2.49-2.5S17.88 7 16.5 7C15.12 7 14 8.12 14 9.5s1.12 2.5 2.5 2.5zM9 11c1.66 0 2.99-1.34 2.99-3S10.66 5 9 5C7.34 5 6 6.34 6 8s1.34 3 3 3zm7.5 3c-1.83 0-5.5.92-5.5 2.75V19h11v-2.25c0-1.83-3.67-2.75-5.5-2.75zM9 13c-2.33 0-7 1.17-7 3.5V19h7v-2.25c0-.85.33-2.34 2.37-3.47C10.5 13.1 9.66 13 9 13z"/></symbol><symbol id="swap" viewBox="0 0 24 24"><path d="M14.8 3.8a4.09 4.09 0 0 1 3.1 2.3c.5 1.3.5 3.3.5 6a39.13 39.13 0 0 1-.5 5.8l2.3-2.3 1.9 1-5.5 5.4-5.5-5.5 1.9-1 2.3 2.3a39.58 39.58 0 0 0 .5-5.9c0-2.6 0-4.6-.5-5.9s-3.7-2.2-3.7-2.2h3.2z"/><path d="M9.2 20.2a4.09 4.09 0 0 1-3.1-2.3c-.5-1.3-.5-3.3-.5-6a39.13 39.13 0 0 1 .5-5.8L3.8 8.4l-1.9-1L7.4 2l5.5 5.5-1.9 1-2.3-2.3a39.58 39.58 0 0 0-.5 5.9c0 2.6 0 4.6.5 5.9s3.7 2.2 3.7 2.2H9.2z"/></symbol><symbol id="tablet-android" viewBox="0 0 24 24"><defs><path d="M0 0h24v24H0z" id="a"/></defs><clipPath id="b"><use overflow="visible" xlink:href="#a"/></clipPath><path clip-path="url(#b)" d="M18 0H6C4.34 0 3 1.34 3 3v18c0 1.66 1.34 3 3 3h12c1.66 0 3-1.34 3-3V3c0-1.66-1.34-3-3-3zm-4 22h-4v-1h4v1zm5.25-3H4.75V3h14.5v16z"/></symbol><symbol id="tablet-ios" viewBox="0 0 24 24"><path d="M18.5 0h-14C3.12 0 2 1.12 2 2.5v19C2 22.88 3.12 24 4.5 24h14c1.38 0 2.5-1.12 2.5-2.5v-19C21 1.12 19.88 0 18.5 0zm-7 23c-.83 0-1.5-.67-1.5-1.5s.67-1.5 1.5-1.5 1.5.67 1.5 1.5-.67 1.5-1.5 1.5zm7.5-4H4V3h15v16z"/></symbol><symbol id="tablet" viewBox="0 0 24 24"><path d="M21 4H3c-1.1 0-2 .9-2 2v12c0 1.1.9 2 2 2h18c1.1 0 1.99-.9 1.99-2L23 6c0-1.1-.9-2-2-2zm-2 14H5V6h14v12z"/></symbol><symbol id="target" viewBox="0 0 24 24"><path d="M12 8c-2.21 0-4 1.79-4 4s1.79 4 4 4 4-1.79 4-4-1.79-4-4-4zm8.94 3c-.46-4.17-3.77-7.48-7.94-7.94V1h-2v2.06C6.83 3.52 3.52 6.83 3.06 11H1v2h2.06c.46 4.17 3.77 7.48 7.94 7.94V23h2v-2.06c4.17-.46 7.48-3.77 7.94-7.94H23v-2h-2.06zM12 19c-3.87 0-7-3.13-7-7s3.13-7 7-7 7 3.13 7 7-3.13 7-7 7z"/></symbol><symbol id="text-wrap" viewBox="0 0 24 24"><path d="M4 19h6v-2H4v2zM20 5H4v2h16V5zm-3 6H4v2h13.25c1.1 0 2 .9 2 2s-.9 2-2 2H15v-2l-3 3 3 3v-2h2c2.21 0 4-1.79 4-4s-1.79-4-4-4z"/><path d="M0 0h24v24H0z" fill="none"/></symbol><symbol id="text" viewBox="0 0 24 24"><path d="M1.6 18.3L5.8 5.9h2.5l4.2 12.4h-2.4L9.2 15H4.9l-1.1 3.4H1.6zM7 8.1l-1.6 5.2h3.3L7 8.1zM15.7 16.9l-.1 1.5h-2.1V5.2h2.2V10h.1c.4-.8 1.2-1.5 2.8-1.5 2.3 0 3.7 1.7 3.7 4.4v1c0 2.9-1.4 4.5-3.7 4.5-1.6.1-2.5-.6-2.9-1.5zm4.3-3v-.8c0-1.8-.8-2.8-2.1-2.8s-2.2 1.1-2.2 2.8v.9c0 1.5.7 2.7 2.2 2.7 1.3 0 2.1-.9 2.1-2.8z"/></symbol><symbol id="thumbs-down" viewBox="0 0 24 24"><path d="M0 0h24v24H0z" fill="none"/><path d="M15 3H6c-.83 0-1.54.5-1.84 1.22l-3.02 7.05c-.09.23-.14.47-.14.73v1.91l.01.01L1 14c0 1.1.9 2 2 2h6.31l-.95 4.57-.03.32c0 .41.17.79.44 1.06L9.83 23l6.59-6.59c.36-.36.58-.86.58-1.41V5c0-1.1-.9-2-2-2zm4 0v12h4V3h-4z"/></symbol><symbol id="thumbs-up-down" viewBox="0 0 24 24"><path d="M12 6c0-.55-.45-1-1-1H5.82l.66-3.18.02-.23c0-.31-.13-.59-.33-.8L5.38 0 .44 4.94C.17 5.21 0 5.59 0 6v6.5c0 .83.67 1.5 1.5 1.5h6.75c.62 0 1.15-.38 1.38-.91l2.26-5.29c.07-.17.11-.36.11-.55V6zm10.5 4h-6.75c-.62 0-1.15.38-1.38.91l-2.26 5.29c-.07.17-.11.36-.11.55V18c0 .55.45 1 1 1h5.18l-.66 3.18-.02.24c0 .31.13.59.33.8l.79.78 4.94-4.94c.27-.27.44-.65.44-1.06v-6.5c0-.83-.67-1.5-1.5-1.5z"/><path d="M0 0h24v24H0z" fill="none"/></symbol><symbol id="thumbs-up" viewBox="0 0 24 24"><path d="M0 0h24v24H0z" fill="none"/><path d="M1 21h4V9H1v12zm22-11c0-1.1-.9-2-2-2h-6.31l.95-4.57.03-.32c0-.41-.17-.79-.44-1.06L14.17 1 7.59 7.59C7.22 7.95 7 8.45 7 9v10c0 1.1.9 2 2 2h9c.83 0 1.54-.5 1.84-1.22l3.02-7.05c.09-.23.14-.47.14-.73v-1.91l-.01-.01L23 10z"/></symbol><symbol id="time" viewBox="0 0 24 24"><path d="M11.99 2C6.47 2 2 6.48 2 12s4.47 10 9.99 10C17.52 22 22 17.52 22 12S17.52 2 11.99 2zM12 20c-4.42 0-8-3.58-8-8s3.58-8 8-8 8 3.58 8 8-3.58 8-8 8z" fill-opacity=".9"/><path d="M12.5 7H11v6l5.25 3.15.75-1.23-4.5-2.67z" fill-opacity=".9"/></symbol><symbol id="toc" viewBox="0 0 24 24"><path d="M3 9h14V7H3v2zm0 4h14v-2H3v2zm0 4h14v-2H3v2zm16 0h2v-2h-2v2zm0-10v2h2V7h-2zm0 6h2v-2h-2v2z"/></symbol><symbol id="today" viewBox="0 0 24 24"><path d="M19 3h-1V1h-2v2H8V1H6v2H5c-1.11 0-1.99.9-1.99 2L3 19c0 1.1.89 2 2 2h14c1.1 0 2-.9 2-2V5c0-1.1-.9-2-2-2zm0 16H5V8h14v11zM7 10h5v5H7z"/></symbol><symbol id="transfer-alt" viewBox="0 0 24 24"><path d="M3.8 9.2c0-.9 1-2.6 2.3-3.1s3.3-.5 6-.5c2.9 0 5.8.5 5.8.5l-2.3-2.3 1-1.9L22 7.4l-5.5 5.5-1-1.9 2.3-2.3s-2.9-.5-5.9-.5c-2.6 0-4.6 0-5.9.5s-2.2 3.7-2.2 3.7V9.2z"/><path d="M20.2 14.8c0 .9-1 2.6-2.3 3.1s-3.3.5-6 .5c-2.9 0-5.8-.5-5.8-.5l2.3 2.3-1 1.9L2 16.6l5.5-5.5 1 1.9-2.3 2.3s2.9.5 5.9.5c2.6 0 4.6 0 5.9-.5s2.2-3.7 2.2-3.7v3.2z"/></symbol><symbol id="transfer" viewBox="0 0 24 24"><path d="M6.99 11L3 15l3.99 4v-3H14v-2H6.99v-3zM21 9l-3.99-4v3H10v2h7.01v3L21 9z"/><path d="M0 0h24v24H0z" fill="none"/></symbol><symbol id="upload-cloud" viewBox="0 0 24 24"><path d="M0 0h24v24H0z" fill="none"/><path d="M19.35 10.04C18.67 6.59 15.64 4 12 4 9.11 4 6.6 5.64 5.35 8.04 2.34 8.36 0 10.91 0 14c0 3.31 2.69 6 6 6h13c2.76 0 5-2.24 5-5 0-2.64-2.05-4.78-4.65-4.96zM14 13v4h-4v-4H7l5-5 5 5h-3z"/></symbol><symbol id="upload-file" viewBox="0 0 24 24"><path d="M0 0h24v24H0z" fill="none"/><path d="M9 16h6v-6h4l-7-7-7 7h4zm-4 2h14v2H5z"/></symbol><symbol id="view-block" viewBox="0 0 24 24"><path d="M4 18h17v-6H4v6zM4 5v6h17V5H4z"/></symbol><symbol id="view-grid" viewBox="0 0 24 24"><path d="M4 11h5V5H4v6zm0 7h5v-6H4v6zm6 0h5v-6h-5v6zm6 0h5v-6h-5v6zm-6-7h5V5h-5v6zm6-6v6h5V5h-5z"/><path d="M0 0h24v24H0z" fill="none"/></symbol><symbol id="view-list" viewBox="0 0 24 24"><path d="M4 14h4v-4H4v4zm0 5h4v-4H4v4zM4 9h4V5H4v4zm5 5h12v-4H9v4zm0 5h12v-4H9v4zM9 5v4h12V5H9z"/><path d="M0 0h24v24H0z" fill="none"/></symbol><symbol id="visibility-off" viewBox="0 0 24 24"><path d="M12 7c2.76 0 5 2.24 5 5 0 .65-.13 1.26-.36 1.83l2.92 2.92c1.51-1.26 2.7-2.89 3.43-4.75-1.73-4.39-6-7.5-11-7.5-1.4 0-2.74.25-3.98.7l2.16 2.16C10.74 7.13 11.35 7 12 7zM2 4.27l2.28 2.28.46.46C3.08 8.3 1.78 10.02 1 12c1.73 4.39 6 7.5 11 7.5 1.55 0 3.03-.3 4.38-.84l.42.42L19.73 22 21 20.73 3.27 3 2 4.27zM7.53 9.8l1.55 1.55c-.05.21-.08.43-.08.65 0 1.66 1.34 3 3 3 .22 0 .44-.03.65-.08l1.55 1.55c-.67.33-1.41.53-2.2.53-2.76 0-5-2.24-5-5 0-.79.2-1.53.53-2.2zm4.31-.78l3.15 3.15.02-.16c0-1.66-1.34-3-3-3l-.17.01z"/></symbol><symbol id="visibility" viewBox="0 0 24 24"><path d="M12 4.5C7 4.5 2.73 7.61 1 12c1.73 4.39 6 7.5 11 7.5s9.27-3.11 11-7.5c-1.73-4.39-6-7.5-11-7.5zM12 17c-2.76 0-5-2.24-5-5s2.24-5 5-5 5 2.24 5 5-2.24 5-5 5zm0-8c-1.66 0-3 1.34-3 3s1.34 3 3 3 3-1.34 3-3-1.34-3-3-3z"/></symbol><symbol id="wallet" viewBox="0 0 24 24"><path d="M21 18v1c0 1.1-.9 2-2 2H5c-1.11 0-2-.9-2-2V5c0-1.1.89-2 2-2h14c1.1 0 2 .9 2 2v1h-9c-1.11 0-2 .9-2 2v8c0 1.1.89 2 2 2h9zm-9-2h10V8H12v8zm4-2.5c-.83 0-1.5-.67-1.5-1.5s.67-1.5 1.5-1.5 1.5.67 1.5 1.5-.67 1.5-1.5 1.5z"/></symbol><symbol id="warning" viewBox="0 0 24 24"><path d="M1 21h22L12 2 1 21zm12-3h-2v-2h2v2zm0-4h-2v-4h2v4z"/></symbol><symbol id="web" viewBox="0 0 24 24"><path d="M20 4H4c-1.1 0-1.99.9-1.99 2L2 18c0 1.1.9 2 2 2h16c1.1 0 2-.9 2-2V6c0-1.1-.9-2-2-2zm-5 14H4v-4h11v4zm0-5H4V9h11v4zm5 5h-4V9h4v9z"/></symbol><symbol id="windows" viewBox="0 0 24 24"><path d="M2 12.5v6.7l8.1 1.2v-7.9M10.1 3.7L2 4.9v6.7h8.1M21.9 11.5V2L11.1 3.6v8M11.1 20.5L21.9 22v-9.5H11.1"/></symbol></svg>