<svg width="56" height="56" viewBox="0 0 56 56" xmlns="http://www.w3.org/2000/svg"><path d="M9.48 18.877l17.774-9.723c.375-.205 1.117-.205 1.493 0l17.773 9.723a1 1 0 1 0 .96-1.754L29.706 7.399c-.974-.532-2.439-.532-3.412 0L8.52 17.123a1 1 0 0 0 .96 1.754zM8.23 48h40.042a1 1 0 1 0 0-2H8.229a1 1 0 0 0 0 2zM11 43h35a1 1 0 0 0 0-2H11a1 1 0 0 0 0 2z"/><path d="M14.903 21H41.6a1 1 0 1 0 0-2H14.903a1 1 0 0 0 0 2z"/><path d="M17.081 36h3.13l.754-14h-2.376L17.08 36zm1.111-16h3.484c.77 0 1.364.649 1.322 1.442l-.815 15.117c-.042.793-.707 1.441-1.477 1.441h-4.452c-.77 0-1.33-.645-1.245-1.435l1.63-15.13c.084-.79.784-1.435 1.553-1.435zM29.968 36l-.695-14h-1.547l-.694 14h2.936zM27.11 20h2.778c.708 0 1.32.649 1.36 1.442l.749 15.117c.04.793-.508 1.441-1.217 1.441h-4.562c-.709 0-1.256-.648-1.217-1.441l.75-15.117c.039-.793.65-1.442 1.359-1.442zM36.789 36h3.13l-1.508-14h-2.376l.754 14zm-1.465-16h3.484c.77 0 1.469.646 1.554 1.435l1.63 15.13c.084.79-.475 1.435-1.246 1.435h-4.453c-.77 0-1.434-.648-1.477-1.441l-.814-15.117c-.043-.793.553-1.442 1.322-1.442z"/></svg>