<svg width="90" height="90" viewBox="0 0 90 90" xmlns="http://www.w3.org/2000/svg"><title>Lock</title><path d="M63.043 29.12c0-9.438-7.678-17.115-17.115-17.115H44.81c-9.437 0-17.115 7.677-17.115 17.114V40.64l-6.442 3v34.27h48.232V42.64l-6.442-2V29.12zm7.628 9.7a4 4 0 0 1 2.814 3.82v35.27a4 4 0 0 1-4 4H21.253a4 4 0 0 1-4-4V43.64a4 4 0 0 1 2.312-3.626l4.13-1.923v-8.972c0-11.646 9.47-21.114 21.115-21.114h1.118c11.647 0 21.115 9.468 21.115 21.114v8.575l3.628 1.126z"/><path d="M47.562 57.619V70.14h-4.385V57.619a5.484 5.484 0 0 1-3.288-5.017 5.486 5.486 0 0 1 5.48-5.481 5.486 5.486 0 0 1 5.482 5.48 5.483 5.483 0 0 1-3.29 5.018M52.196 29.12a6.279 6.279 0 0 0-6.268-6.269H44.81a6.279 6.279 0 0 0-6.268 6.268v7.521h13.654v-7.52zm4 11.52H34.542V29.12c0-5.663 4.605-10.269 10.268-10.269h1.118c5.663 0 10.268 4.606 10.268 10.268V40.64z"/></svg>