<svg width="90" height="90" viewBox="0 0 90 90" xmlns="http://www.w3.org/2000/svg"><title>Reorder card</title><path d="M79.656 73.067H9.776A1.786 1.786 0 0 1 8 71.275v-28.75L44.716 59.06 81.43 42.525l.001 28.75c0 .988-.796 1.792-1.775 1.792zm-69.38-36.126l5.914-3.588 1.101 8.97-8.541-3.848c.414-.66.956-1.234 1.526-1.534zM42.355 17.48c1.253-.634 3.469-.634 4.721 0l3.434 2.084-14.531 1.784 6.376-3.868zm21.059 4.53a3.161 3.161 0 0 1 3.523 2.752l.012.098.196 1.592-47.036 5.998-.168-1.372-.067-.538a3.152 3.152 0 0 1 .647-2.33 3.148 3.148 0 0 1 2.106-1.193l5.024-.617 28.383-3.485 6.413-.787.967-.119zM21.557 44.242l-.688-5.602 47.036-5.998 1.348 10.98-24.537 11.05-23.159-10.43zm57.496-7.36l.103.057c.569.301 1.111.874 1.525 1.536l-7.609 3.426-1.148-9.346 7.129 4.326zm6.377 3.846c0-2.828-1.865-5.95-4.348-7.295l-9.778-5.933-.397-3.228a7.167 7.167 0 0 0-7.103-6.289h-.001a7.14 7.14 0 0 0-.876.054l-6.004.737-7.829-4.75-.103-.059c-2.438-1.288-6.113-1.288-8.551 0l-14.12 8.567-4.181.513c-3.158.388-5.585 2.79-6.157 5.76l-7.631 4.628C5.866 34.778 4 37.901 4 40.73v30.546c0 3.193 2.591 5.792 5.776 5.792h69.88c3.185 0 5.775-2.599 5.775-5.792L85.43 40.73z" fill-rule="evenodd"/></svg>