<svg width="56" height="56" viewBox="0 0 56 56" xmlns="http://www.w3.org/2000/svg"><path d="M39.582 18H23c-3.581 0-6.253 1.686-8.09 4.446a13.738 13.738 0 0 0-1.479 2.966c-.219.61-.35 1.092-.41 1.386a1 1 0 1 0 1.958.404 9 9 0 0 1 .335-1.114c.31-.866.728-1.732 1.262-2.534C18.066 21.314 20.148 20 23 20h16.591l-6.29 6.293a1 1 0 0 0 1.415 1.414l8.698-8.702-8.707-8.712a1 1 0 1 0-1.414 1.414L39.583 18z"/><path d="M16.418 38h17.267c3.566 0 6.12-1.49 7.748-3.948.966-1.457 1.419-2.905 1.558-3.916a1 1 0 1 0-1.982-.272 6.375 6.375 0 0 1-.229.931 8.481 8.481 0 0 1-1.014 2.153C38.495 34.866 36.552 36 33.686 36H16.408l6.29-6.293a1 1 0 0 0-1.415-1.414l-8.698 8.702 8.707 8.712a1 1 0 0 0 1.414-1.414L16.417 38z"/></svg>