<svg width="90" height="90" xmlns="http://www.w3.org/2000/svg"><path d="M63.043 32.54v-9.42c0-9.438-7.678-17.115-17.115-17.115H44.81c-9.437 0-17.115 7.677-17.115 17.114V47.64l-6.442 3v34.27h48.232V49.64l-6.442-2-6.847-.1-21.654.1V23.12c0-5.663 4.605-10.269 10.268-10.269h1.118c5.663 0 10.268 4.606 10.268 10.268v7.421l6.847 2zm-6.788 11l6.847.1a4 4 0 011.127.18l6.442 2a4 4 0 012.814 3.82v35.27a4 4 0 01-4 4H21.253a4 4 0 01-4-4V50.64a4 4 0 012.312-3.626l4.13-1.923V23.119c0-11.646 9.47-21.114 21.115-21.114h1.118c11.647 0 21.115 9.468 21.115 21.114v9.421c0 2.667-2.56 4.587-5.121 3.84l-6.847-2a4 4 0 01-2.879-3.84v-7.42a6.279 6.279 0 00-6.268-6.269H44.81a6.279 6.279 0 00-6.268 6.268v20.503l17.713-.082z"/><path d="M47.562 64.619V77.14h-4.385V64.619a5.484 5.484 0 01-3.288-5.017 5.486 5.486 0 015.48-5.481 5.486 5.486 0 015.482 5.48 5.483 5.483 0 01-3.29 5.018"/></svg>