<svg width="56" height="56" xmlns="http://www.w3.org/2000/svg"><path d="M33.554 34.404c.192 1.214.33 2.464.385 3.44a.995.995 0 00.009.182c.01.233.017.448.017.64a1 1 0 001.923.384c8.034 1.425 13.005 5.074 13.005 9.153a1 1 0 102 0c0-5.364-5.924-9.656-15.008-11.183a40.218 40.218 0 00-.64-4.507l.199-.233c.508-.6.776-1.304 1.101-2.568.062-.24.278-1.115.312-1.25.055-.22.107-.421.158-.612 1.142-.342 1.907-1.958 2.147-3.902.175-1.42.02-2.767-.459-3.637a13.51 13.51 0 00.104-1.537c0-6.866-4.512-12.274-10.612-12.274-6.099 0-10.611 5.408-10.611 12.274 0 .295.016.627.048.993-.853.797-1.047 2.529-.695 4.368.373 1.952 1.27 3.524 2.466 3.727l.142.526c.043.16.09.336.176.665.07.265.121.456.172.64.385 1.397.703 2.188 1.228 2.784a41.516 41.516 0 00-.62 4.546C11.42 38.55 5.5 42.84 5.5 48.203a1 1 0 002 0c0-4.081 4.976-7.73 13.018-9.154a1 1 0 001.908-.42c0-.174.005-.368.014-.579a.996.996 0 00.011-.233c.08-1.494.351-3.651.704-5.3a1 1 0 00-.302-.947.996.996 0 00-.222-.405c-.26-.289-.501-.883-.81-2.004-.049-.175-.098-.36-.167-.619l-.176-.668a39.5 39.5 0 00-.411-1.453 1.001 1.001 0 00-1.344-.63 1.829 1.829 0 01-.146-.193c-.282-.424-.532-1.085-.676-1.839-.145-.759-.16-1.493-.058-2.035.037-.194.086-.345.136-.442a1 1 0 00.709-1.08 12.333 12.333 0 01-.104-1.428c0-5.834 3.705-10.274 8.611-10.274 4.907 0 8.612 4.44 8.612 10.274 0 .422-.045.983-.133 1.649a1 1 0 00.23.779c.25.295.416 1.338.273 2.501-.095.767-.302 1.452-.557 1.904-.06.108-.12.194-.17.255a1 1 0 00-1.144.692 30.3 30.3 0 00-.389 1.42c-.036.143-.25 1.01-.309 1.24-.25.974-.444 1.482-.655 1.73-.226.268-.334.396-.415.49-1.912 2.254-2.976 3.143-4.444 3.447a1 1 0 00.405 1.958c1.538-.318 2.665-1.017 4.055-2.435z"/></svg>