<?xml version="1.0" encoding="UTF-8"?>
<svg width="90px" height="90px" viewBox="0 0 90 90" version="1.1" xmlns="http://www.w3.org/2000/svg" xmlns:xlink="http://www.w3.org/1999/xlink">
    <g transform="translate(17.000000, 2.000000)">
        <path d="M46.0434,30.5400009 L46.0434,21.1193 C46.0434,11.6823 38.3654,4.0053 28.9284,4.0053 L27.8104,4.0053 C18.3734,4.0053 10.6954,11.6823 10.6954,21.1193 L10.6954,45.6403 L4.2534,48.6403 L4.2534,82.9103 L52.4854,82.9103 L52.4854,47.6403 L46.0434,45.6403 L39.1964,45.5400009 L17.5424,45.6403 L17.5424,21.1193 C17.5424,15.4573 22.1474,10.8513 27.8104,10.8513 L28.9284,10.8513 C34.5914,10.8513 39.1964,15.4573 39.1964,21.1193 L39.1964,28.5400009 L46.0434,30.5400009 Z M39.2549882,41.54043 L46.1019882,41.6407291 C46.484441,41.6463315 46.8641132,41.7067607 47.2294072,41.8201708 L53.6714072,43.8201708 C55.3448941,44.3397259 56.4854,45.8880169 56.4854,47.6403 L56.4854,82.9103 C56.4854,85.119439 54.694539,86.9103 52.4854,86.9103 L4.2534,86.9103 C2.044261,86.9103 0.2534,85.119439 0.2534,82.9103 L0.2534,48.6403 C0.2534,47.0850456 1.15488481,45.6707849 2.56475526,45.0142169 L6.6954,43.0906009 L6.6954,21.1193 C6.6954,9.47327908 16.1641429,0.0053 27.8104,0.0053 L28.9284,0.0053 C40.5746571,0.0053 50.0434,9.47327908 50.0434,21.1193 L50.0434,30.5400009 C50.0434,33.2073312 47.4822107,35.1274266 44.9218712,34.3795547 L38.0748712,32.3795547 C36.368969,31.8812628 35.1964,30.3171889 35.1964,28.5400009 L35.1964,21.1193 C35.1964,17.6660336 32.3818556,14.8513 28.9284,14.8513 L27.8104,14.8513 C24.3569444,14.8513 21.5424,17.6660336 21.5424,21.1193 L21.5424,41.621867 L39.2549882,41.54043 Z" id="Combined-Shape" fill-rule="nonzero"></path>
        <path d="M30.5616,62.6188 L30.5616,75.1408 L26.1766,75.1408 L26.1766,62.6188 C24.2446,61.7708 22.8886,59.8448 22.8886,57.6018 C22.8886,54.5788 25.3466,52.1208 28.3696,52.1208 C31.3926,52.1208 33.8506,54.5788 33.8506,57.6018 C33.8506,59.8448 32.4946,61.7708 30.5616,62.6188" id="Fill-3"></path>
    </g>
</svg>
