<svg width="56" height="56" viewBox="0 0 56 56" version="1.1" xmlns="http://www.w3.org/2000/svg" xmlns:xlink="http://www.w3.org/1999/xlink">
    <path d="M34.3793711,34.4773184 C34.335242,35.2199775 33.3711044,35.283548 32.9291328,35.1673125 C32.1939427,34.6314457 31.3624348,34.1528127 30.4523209,33.7429478 C31.1268761,33.5524433 31.840041,33.3894939 32.5883154,33.2566387 C32.6458459,32.603986 32.7408392,31.8051146 32.880042,31.0183421 L32.7196392,30.8391352 C32.105216,30.1565003 31.8593253,29.2398539 31.6034169,28.2680388 C30.8484413,27.7621252 30.2844105,26.7909164 30.0360913,25.4929401 C29.8002183,24.258923 29.9386457,23.1725272 30.3809454,22.4044114 C30.379124,22.342271 30.3782133,22.2822525 30.3782133,22.2240527 C30.3782133,20.0679329 31.0733858,18.0470063 32.3350176,16.5341152 C33.6977378,14.8999747 35.5904891,14 37.664471,14 C39.7384528,14 41.6312041,14.8999747 42.9939244,16.5341152 C44.2558597,18.0470063 44.9507287,20.0679329 44.9507287,22.2240527 C44.9507287,22.4192645 44.9404073,22.6381199 44.9200682,22.878194 C45.2649223,23.7972654 45.2045122,24.8212177 45.1450127,25.3025784 C44.9841212,26.608739 44.4880899,27.6205663 43.7756139,28.1834673 C43.764989,28.226814 43.7628641,28.2698576 43.7522391,28.312598 C43.537616,29.1846853 43.3515284,30.0079696 42.7987296,30.659989 L42.7267838,30.7842698 C42.642998,30.8833242 42.557111,30.9841422 42.4689768,31.0859216 C42.6070369,31.8516974 42.7022284,32.621474 42.7611175,33.2557596 C48.5267992,34.2775901 52.2099991,37.0872449 52.2099991,40.5216379 C52.2099991,41.0239141 51.8023062,41.4310094 51.2992928,41.4310094 C50.7962793,41.4310094 50.3885864,41.0239141 50.3885864,40.5216379 C50.3885864,38.0899785 47.3164705,35.9578055 42.6533505,35.0848089 C42.4888163,35.3069986 41.0747929,35.3867202 41.0559717,34.4621925 C41.0544538,34.3770147 41.0313826,34.2506121 41.0292576,34.1666468 C41.0210613,34.1105689 41.0080078,34.0529753 41.0110435,33.9944724 C40.9889326,33.5819454 40.9441418,33.1187962 40.8830245,32.6452762 C40.3449269,33.063903 39.492971,33.4776248 39.0583446,33.6102863 C38.6237183,33.7429478 38.0756836,33.6498413 38.0642711,32.8939819 C38.0528585,32.1381226 38.3339844,31.9467163 38.8519151,31.6929097 C39.7724476,31.276512 40.6382221,30.364946 41.4077775,29.4568905 C41.8084883,28.9843205 41.8591843,27.9488494 42.2143597,26.7787914 C42.2450202,26.794857 42.2765913,26.8075882 42.3631084,26.8178944 C42.7607835,26.8178944 43.1678693,26.0625098 43.2896003,25.0752355 C43.389778,24.261348 43.2656184,23.5347602 43.00546,23.2286051 C43.0567631,22.8400004 43.0852986,22.4962579 43.0852986,22.2240527 C43.0852986,18.7108475 40.8261397,15.862696 37.664471,15.862696 C34.5031058,15.862696 32.2436434,18.7108475 32.2436434,22.2240527 C32.2436434,22.4683705 32.2661075,22.765735 32.255179,23.1052337 C31.8471826,23.2143583 31.6738448,24.1270642 31.8684324,25.1434384 C32.0499665,26.0928222 32.4880163,26.797282 32.877495,26.797282 C32.9048162,26.797282 32.9321374,26.7936445 32.959155,26.7866727 C33.011976,26.7724258 33.060547,26.7445385 33.104868,26.7051324 C33.4907039,27.9646119 33.6561489,29.0931419 34.1069485,29.5942056 C34.2629829,29.7675924 34.4165887,29.9409793 34.5708016,30.111638 C34.5708016,30.111638 34.4772891,32.6154419 34.4667031,32.6069173 C34.4238609,33.149781 34.3762974,33.5484263 34.3535678,33.9838328 C34.3572106,34.0471857 34.3541749,34.1096292 34.345675,34.1702539 C34.3432465,34.2508849 34.3833175,34.3672844 34.3793711,34.4773184 Z M23.6700499,33.2557596 C29.4519116,34.2775901 33.1454475,37.0872449 33.1454475,40.5216379 C33.1454475,41.0239141 32.7366106,41.4310094 32.2321855,41.4310094 C31.7277605,41.4310094 31.3189235,41.0239141 31.3189235,40.5216379 C31.3189235,38.0899785 28.2381864,35.9578055 23.5619806,35.0848089 C23.3969846,35.3069986 21.9789931,35.3867202 21.9211532,34.4773487 C21.9585969,34.3770147 21.935461,34.2506121 21.93333,34.1666468 C21.9251107,34.1105689 21.9120206,34.0529753 21.9150648,33.9944724 C21.8928919,33.5819454 21.8479753,33.1187962 21.7866865,32.6452762 C21.2155307,33.0883781 20.5711004,33.4530761 19.8358833,33.643405 C19.5776367,33.7216797 18.9667969,33.6234131 18.960023,32.8916016 C18.953249,32.15979 19.119812,31.9609375 19.6805106,31.7232163 C20.6295034,31.3221126 21.5218958,30.3876574 22.3129122,29.4568905 C22.7147474,28.9843205 22.7655857,27.9488494 23.1217579,26.7787914 C23.1525043,26.794857 23.1841641,26.8075882 23.2176504,26.8133476 C23.6697151,26.8178944 24.0779432,26.0625098 24.2000159,25.0752355 C24.3004747,24.261348 24.1759666,23.5347602 23.9150781,23.2286051 C23.9665252,22.8400004 23.9951407,22.4962579 23.9951407,22.2240527 C23.9951407,18.7108475 21.7296422,15.862696 18.5591009,15.862696 C15.3888641,15.862696 13.1230611,18.7108475 13.1230611,22.2240527 C13.1230611,22.4683705 13.1455883,22.765735 13.1860762,23.0982619 C12.7254877,23.2143583 12.5516635,24.1270642 12.7467972,25.1434384 C12.9288407,26.0928222 13.3681198,26.797282 13.7586915,26.797282 C13.8935498,26.7724258 13.9422571,26.7445385 13.9867026,26.7051324 C14.3736212,27.9646119 14.5395305,29.0931419 14.9915952,29.5942056 C15.1480674,29.7675924 15.3021042,29.9409793 15.4567499,30.111638 L15.3842978,32.6324158 C15.3093969,33.149781 15.2616999,33.5484263 15.2389065,33.9838328 C15.2425596,34.0471857 15.2395154,34.1096292 15.2309916,34.1702539 C15.2285562,34.2508849 15.2687397,34.3672844 15.2672176,34.4460966 C15.2105954,35.3866899 13.773121,35.2778684 13.6075162,35.0675005 C8.92278657,35.9386784 5.83048146,38.0802483 5.83048146,40.5140295 C5.83048146,41.0163057 5.41890472,41.4270385 4.91447968,41.4270385 C4.41005464,41.4270385 4,41.0220651 4,40.5197889 C4,37.0872146 7.69049172,34.2796816 13.4687004,33.2566387 C13.5263923,32.603986 13.6216522,31.8051146 13.7612456,31.0183421 L13.6003927,30.8391352 C12.9842453,30.1565003 12.7376646,29.2398539 12.4810379,28.2680388 C11.7239438,27.7621252 11.1583302,26.7909164 10.9093141,25.4929401 C10.6727792,24.258923 10.811595,23.1725272 11.2551359,22.4044114 C11.2533094,22.342271 11.2523961,22.2822525 11.2523961,22.2240527 C11.2523961,20.0679329 11.9495195,18.0470063 13.2146918,16.5341152 C14.5812361,14.8999747 16.479299,14 18.5591009,14 C20.6389029,14 22.5369658,14.8999747 23.9035101,16.5341152 C25.1689868,18.0470063 25.8658057,20.0679329 25.8658057,22.2240527 C25.8658057,22.4192645 25.8554554,22.6381199 25.8350592,22.878194 C26.1808811,23.7972654 26.1203014,24.8212177 26.060635,25.3025784 C25.899292,26.608739 25.4018686,27.6205663 24.6873933,28.1834673 C24.6767386,28.226814 24.6746077,28.2698576 24.6639529,28.312598 C24.4487275,29.1846853 24.2621177,30.0079696 23.7077676,30.659989 L23.6356199,30.7842698 C23.551599,30.8833242 23.465471,30.9841422 23.3770894,31.0859216 C23.515537,31.8516974 23.6109956,32.621474 23.6700499,33.2557596 Z" id="Combined-Shape"></path>
</svg>
