<?xml version="1.0" encoding="UTF-8"?>
<svg width="85px" height="85px" viewBox="0 0 85 85" version="1.1" xmlns="http://www.w3.org/2000/svg" xmlns:xlink="http://www.w3.org/1999/xlink">
    <path d="M79.9950943,42.9361509 C79.9950943,22.469157 63.4032803,5.87690566 42.9366038,5.87690566 C22.4697685,5.87690566 5.87735849,22.4693157 5.87735849,42.9361509 C5.87735849,63.4029862 22.4697685,79.9953962 42.9366038,79.9953962 C63.4032803,79.9953962 79.9950943,63.4031449 79.9950943,42.9361509 Z M84.9950943,42.9361509 C84.9950943,66.1645392 66.1647336,84.9953962 42.9366038,84.9953962 C19.7083447,84.9953962 0.877358491,66.16441 0.877358491,42.9361509 C0.877358491,19.7078919 19.7083447,0.87690566 42.9366038,0.87690566 C66.1647336,0.87690566 84.9950943,19.7077627 84.9950943,42.9361509 Z"></path>
    <polygon points="40.7358491 48.2830189 45.2641509 48.2830189 45.2641509 25.6415094 40.7358491 25.6415094"></polygon>
    <polygon points="40.7358491 61.1132075 45.2641509 61.1132075 45.2641509 55.8301887 40.7358491 55.8301887"></polygon>
</svg>
