<svg width="56" height="56" viewBox="0 0 56 56" version="1.1" xmlns="http://www.w3.org/2000/svg" xmlns:xlink="http://www.w3.org/1999/xlink">
  <path d="M8,51 L48,51 C48.5522847,51 49,50.5522847 49,50 C49,49.4477153 48.5522847,49 48,49 L8,49 C7.44771525,49 7,49.4477153 7,50 C7,50.5522847 7.44771525,51 8,51 Z" id="Stroke-1" fill-rule="nonzero"></path>
  <path d="M39,11 L39,45 C39,45.5522847 39.4477153,46 40,46 C40.5522847,46 41,45.5522847 41,45 L41,10 C41,9.44771525 40.5522847,9 40,9 L16,9 C15.4477153,9 15,9.44771525 15,10 L15,45 C15,45.5522847 15.4477153,46 16,46 C16.5522847,46 17,45.5522847 17,45 L17,11 L39,11 Z" id="Stroke-3" fill-rule="nonzero"></path>
  <polygon id="Stroke-4" fill-rule="nonzero" points="27 28 29 28 29 26 27 26"></polygon>
  <polygon id="Stroke-5" fill-rule="nonzero" points="21 28 23 28 23 26 21 26"></polygon>
  <polygon id="Stroke-6" fill-rule="nonzero" points="33 28 35 28 35 26 33 26"></polygon>
  <polygon id="Stroke-7" fill-rule="nonzero" points="27 18 29 18 29 16 27 16"></polygon>
  <polygon id="Stroke-8" fill-rule="nonzero" points="21 18 23 18 23 16 21 16"></polygon>
  <polygon id="Stroke-9" fill-rule="nonzero" points="33 18 35 18 35 16 33 16"></polygon>
  <polygon id="Stroke-10" fill-rule="nonzero" points="27 39 29 39 29 37 27 37"></polygon>
  <polygon id="Stroke-11" fill-rule="nonzero" points="21 39 23 39 23 37 21 37"></polygon>
  <polygon id="Stroke-12" fill-rule="nonzero" points="33 39 35 39 35 37 33 37"></polygon>
  <path d="M23,9 L23,6 C23,5.17157288 22.3284271,4.5 21.5,4.5 C20.6715729,4.5 20,5.17157288 20,6 L20,9 C20,9.82842712 20.6715729,10.5 21.5,10.5 C22.3284271,10.5 23,9.82842712 23,9 Z" id="Stroke-13" fill-rule="nonzero"></path>
</svg>
