<svg width="56" height="56" viewBox="0 0 56 56" version="1.1" xmlns="http://www.w3.org/2000/svg" xmlns:xlink="http://www.w3.org/1999/xlink">
  <path d="M9.47993991,18.8773014 L27.2537322,9.15390122 C27.6291145,8.94864334 28.3706241,8.94864334 28.7467049,9.1541402 L46.5200601,18.8773014 C47.0045803,19.1423649 47.6122379,18.9644601 47.8773014,18.4799399 C48.1423649,17.9954197 47.9644601,17.3877621 47.4799399,17.1226986 L29.7061476,7.39929849 C28.7319067,6.86695676 27.267416,6.86695676 26.2940326,7.39919994 L8.52006009,17.1226986 C8.03553993,17.3877621 7.85763514,17.9954197 8.12269863,18.4799399 C8.38776213,18.9644601 8.99541974,19.1423649 9.47993991,18.8773014 Z" id="Stroke-1" fill-rule="nonzero"></path>
  <path d="M8.22941176,48 L48.2718588,48 C48.8241436,48 49.2718588,47.5522847 49.2718588,47 C49.2718588,46.4477153 48.8241436,46 48.2718588,46 L8.22941176,46 C7.67712701,46 7.22941176,46.4477153 7.22941176,47 C7.22941176,47.5522847 7.67712701,48 8.22941176,48 Z" id="Stroke-3" fill-rule="nonzero"></path>
  <path d="M11,43 L46,43 C46.5522847,43 47,42.5522847 47,42 C47,41.4477153 46.5522847,41 46,41 L11,41 C10.4477153,41 10,41.4477153 10,42 C10,42.5522847 10.4477153,43 11,43 Z" id="Stroke-5" fill-rule="nonzero"></path>
  <path d="M14.9034129,21 L41.5986835,21 C42.1509683,21 42.5986835,20.5522847 42.5986835,20 C42.5986835,19.4477153 42.1509683,19 41.5986835,19 L14.9034129,19 C14.3511282,19 13.9034129,19.4477153 13.9034129,20 C13.9034129,20.5522847 14.3511282,21 14.9034129,21 Z" id="Stroke-7" fill-rule="nonzero"></path>
  <path d="M17.0810441,36 L20.2105521,36 L20.9648868,22 L18.5888016,22 L17.0810441,36 Z M18.1919833,20 L21.6758019,20 C22.4455261,20 23.040313,20.6487354 22.9978616,21.441848 L22.1833534,36.5586332 C22.1409019,37.3517459 21.4761401,38 20.7064158,38 L16.2536776,38 C15.4839534,38 14.9232209,37.3546334 15.0085904,36.5653708 L16.6380733,21.4351104 C16.7229762,20.6458478 17.4227255,20 18.1919833,20 Z" id="Fill-9" fill-rule="nonzero"></path>
  <path d="M29.9678627,36 L29.2734525,22 L27.7261706,22 L27.0321579,36 L29.9678627,36 Z M27.1109933,20 L29.8886166,20 C30.597194,20 31.2091472,20.6487354 31.2482263,21.441848 L31.99803,36.5586332 C32.0371092,37.3517459 31.4900015,38 30.7809947,38 L26.2190446,38 C25.5104672,38 24.9625007,37.3517459 25.0020093,36.5586332 L25.7513836,21.441848 C25.7908921,20.6487354 26.4028453,20 27.1109933,20 Z" id="Fill-11" fill-rule="nonzero"></path>
  <path d="M36.7890427,36 L39.9190316,36 L38.4112684,22 L36.0351372,22 L36.7890427,36 Z M35.3242477,20 L38.8076137,20 C39.577341,20 40.2766266,20.6458478 40.3619964,21.4351104 L41.9914858,36.5653708 C42.0763891,37.3546334 41.5165874,38 40.7463935,38 L36.2931711,38 C35.5239103,38 34.8591458,37.3517459 34.8162276,36.5586332 L34.0021827,21.441848 C33.9592646,20.6487354 34.5545204,20 35.3242477,20 Z" id="Fill-13" fill-rule="nonzero"></path>
</svg>
