<?xml version="1.0" encoding="UTF-8"?>
<svg width="90px" height="90px" viewBox="0 0 90 90" version="1.1" xmlns="http://www.w3.org/2000/svg" xmlns:xlink="http://www.w3.org/1999/xlink">
    <title>Lock</title>
    <g transform="translate(17.000000, 8.000000)">
        <path d="M46.0434,21.1193 C46.0434,11.6823 38.3654,4.0053 28.9284,4.0053 L27.8104,4.0053 C18.3734,4.0053 10.6954,11.6823 10.6954,21.1193 L10.6954,32.6403 L4.2534,35.6403 L4.2534,69.9103 L52.4854,69.9103 L52.4854,34.6403 L46.0434,32.6403 L46.0434,21.1193 Z M53.6714072,30.8201708 C55.3448941,31.3397259 56.4854,32.8880169 56.4854,34.6403 L56.4854,69.9103 C56.4854,72.119439 54.694539,73.9103 52.4854,73.9103 L4.2534,73.9103 C2.044261,73.9103 0.2534,72.119439 0.2534,69.9103 L0.2534,35.6403 C0.2534,34.0850456 1.15488481,32.6707849 2.56475526,32.0142169 L6.6954,30.0906009 L6.6954,21.1193 C6.6954,9.47327908 16.1641429,0.0053 27.8104,0.0053 L28.9284,0.0053 C40.5746571,0.0053 50.0434,9.47327908 50.0434,21.1193 L50.0434,29.6938103 L53.6714072,30.8201708 Z" id="Combined-Shape" fill-rule="nonzero"></path>
        <path d="M30.5616,49.6188 L30.5616,62.1408 L26.1766,62.1408 L26.1766,49.6188 C24.2446,48.7708 22.8886,46.8448 22.8886,44.6018 C22.8886,41.5788 25.3466,39.1208 28.3696,39.1208 C31.3926,39.1208 33.8506,41.5788 33.8506,44.6018 C33.8506,46.8448 32.4946,48.7708 30.5616,49.6188" id="Fill-3"></path>
        <path d="M35.1964,21.1193 C35.1964,17.6660336 32.3818556,14.8513 28.9284,14.8513 L27.8104,14.8513 C24.3569444,14.8513 21.5424,17.6660336 21.5424,21.1193 L21.5424,28.6403 L35.1964,28.6403 L35.1964,21.1193 Z M39.1964,32.6403 L17.5424,32.6403 L17.5424,21.1193 C17.5424,15.4573 22.1474,10.8513 27.8104,10.8513 L28.9284,10.8513 C34.5914,10.8513 39.1964,15.4573 39.1964,21.1193 L39.1964,32.6403 Z" id="Combined-Shape" fill-rule="nonzero"></path>
    </g>
</svg>
