<?xml version="1.0" encoding="UTF-8"?>
<svg width="90px" height="90px" viewBox="0 0 90 90" version="1.1" xmlns="http://www.w3.org/2000/svg" xmlns:xlink="http://www.w3.org/1999/xlink">
    <title>Reorder card</title>
    <g stroke="none" stroke-width="1" fill-rule="evenodd">
        <path d="M79.656,73.0671 L9.776,73.0671 C8.797,73.0671 8,72.2631 8,71.2751 L8,42.5241 L44.716,59.0601 L81.43,42.5251 L81.431,71.2751 C81.431,72.2631 80.635,73.0671 79.656,73.0671 L79.656,73.0671 Z M10.276,36.9411 L16.19,33.3531 L17.291,42.3221 L8.75,38.4751 C9.164,37.8141 9.706,37.2411 10.276,36.9411 L10.276,36.9411 Z M42.355,17.4791 C43.608,16.8451 45.824,16.8451 47.076,17.4791 L50.51,19.5631 L35.979,21.3471 L42.355,17.4791 Z M63.414,22.0081 C63.545,21.9921 63.675,21.9841 63.804,21.9841 C65.378,21.9841 66.74,23.1581 66.937,24.7601 L66.949,24.8591 L66.949,24.8591 L67.145,26.4511 L20.109,32.4491 L19.941,31.0771 L19.874,30.5391 C19.821,30.1061 19.858,29.6821 19.971,29.2871 C20.084,28.8931 20.272,28.5261 20.521,28.2081 C20.895,27.7291 21.405,27.3581 22.002,27.1581 C22.201,27.0911 22.41,27.0431 22.627,27.0161 L27.651,26.3991 L56.034,22.9141 L62.447,22.1271 L63.414,22.0081 Z M21.557,44.2431 L20.869,38.6411 L67.905,32.6431 L69.253,43.6221 L44.716,54.6731 L21.557,44.2431 Z M79.053,36.8821 L79.156,36.9401 C79.725,37.2411 80.267,37.8141 80.681,38.4761 L73.072,41.9021 L71.924,32.5561 L79.053,36.8821 Z M85.43,40.7291 C85.43,37.9011 83.565,34.7781 81.082,33.4341 L71.304,27.5011 L70.907,24.2731 C70.467,20.6881 67.413,17.9841 63.804,17.9841 L63.803,17.9841 C63.512,17.9841 63.217,18.0021 62.927,18.0381 L56.923,18.7751 L49.094,14.0241 L48.991,13.9661 C46.553,12.6781 42.878,12.6781 40.44,13.9661 L26.32,22.5331 L22.139,23.0461 C18.981,23.4341 16.554,25.8361 15.982,28.8051 L8.351,33.4341 C5.866,34.7781 4,37.9011 4,40.7291 L4,71.2751 C4,74.4681 6.591,77.0671 9.776,77.0671 L79.656,77.0671 C82.841,77.0671 85.431,74.4681 85.431,71.2751 L85.43,40.7291 Z" id="Mail-card"></path>
    </g>
</svg>
