<svg width="56px" height="56px" viewBox="0 0 56 56" version="1.1" xmlns="http://www.w3.org/2000/svg" xmlns:xlink="http://www.w3.org/1999/xlink">
  <path d="M39.5820501,18 L23,18 C19.4189396,18 16.74716,19.686201 14.9105239,22.4459704 C14.2798182,23.3936824 13.7936906,24.402864 13.4312474,25.4119701 C13.2121484,26.0219808 13.0810935,26.5044224 13.0205671,26.79823 C12.9091326,27.3391559 13.2573041,27.8679984 13.79823,27.9794329 C14.3391559,28.0908674 14.8679984,27.7426959 14.9794329,27.20177 C15.02191,26.9955776 15.1285482,26.6030192 15.3135182,26.0880299 C15.6245234,25.222136 16.0415924,24.3563176 16.5755178,23.5540296 C18.0663991,21.313799 20.148109,20 23,20 L39.5914657,20 L33.3018052,26.2930857 C32.9113872,26.6837163 32.9115596,27.3168813 33.3021901,27.7072992 C33.6928207,28.0977172 34.3259857,28.0975449 34.7164036,27.7069143 L43.4138113,19.0047702 L34.7073167,10.2931032 C34.3169084,9.90246299 33.6837435,9.90227496 33.2931032,10.2926833 C32.902463,10.6830916 32.902275,11.3162565 33.2926833,11.7068968 L39.5820501,18 L39.5820501,18 Z" id="Combined-Shape" fill-rule="nonzero"></path>
  <path d="M16.4179499,38 L33.6852444,38 C37.2514535,38 39.8054006,36.5090697 41.4333375,34.0523832 C42.3992032,32.594815 42.8517059,31.1470122 42.9906803,30.1362075 C43.0659057,29.5890699 42.6833452,29.084545 42.1362075,29.0093197 C41.5890699,28.9340943 41.084545,29.3166548 41.0093197,29.8637925 C40.9863928,30.030547 40.9164079,30.359868 40.7802734,30.7954364 C40.5503884,31.5309637 40.2174716,32.266547 39.7661569,32.9476168 C38.4949758,34.8659303 36.552327,36 33.6852444,36 L16.4085343,36 L22.6981948,29.7069143 C23.0886128,29.3162837 23.0884404,28.6831187 22.6978099,28.2927008 C22.3071793,27.9022828 21.6740143,27.9024551 21.2835964,28.2930857 L12.5861887,36.9952298 L21.2926833,45.7068968 C21.6830916,46.097537 22.3162565,46.097725 22.7068968,45.7073167 C23.097537,45.3169084 23.097725,44.6837435 22.7073167,44.2931032 L16.4179499,38 Z" id="Combined-Shape" fill-rule="nonzero"></path>
</svg>
