<svg width="56" height="56" viewBox="0 0 56 56" version="1.1" xmlns="http://www.w3.org/2000/svg" xmlns:xlink="http://www.w3.org/1999/xlink">
    <path d="M33.5542617,34.4041832 C33.7458489,35.6179009 33.8839297,36.8679007 33.9386274,37.8447112 C33.9361912,37.9061459 33.9394455,37.9667529 33.9479631,38.0259576 C33.958881,38.2590953 33.964567,38.4742739 33.964567,38.6667895 C33.964567,39.2190743 34.4122823,39.6667895 34.964567,39.6667895 C35.3810481,39.6667895 35.7380631,39.4121849 35.8884569,39.0501307 C43.9221783,40.4750202 48.8931385,44.1236649 48.8931385,48.2031035 C48.8931385,48.7553882 49.3408537,49.2031035 49.8931385,49.2031035 C50.4454232,49.2031035 50.8931385,48.7553882 50.8931385,48.2031035 C50.8931385,42.8385215 44.9690592,38.5465762 35.8853925,37.0200925 C35.7709772,35.629929 35.5404139,33.951677 35.2455919,32.5133382 C35.3002883,32.4487388 35.3650059,32.3722835 35.4435178,32.2795357 C35.9516193,31.680264 36.2201443,30.9764254 36.5453835,29.7118363 C36.6073081,29.471062 36.822759,28.5965213 36.8565624,28.4623054 C36.911952,28.2423825 36.9641901,28.0408579 37.0154865,27.8504878 C38.1572334,27.5082003 38.9220896,25.8924396 39.1617988,23.9482773 C39.3369803,22.5282236 39.1818254,21.1807714 38.7032969,20.3108195 C38.7715098,19.7223423 38.8071604,19.2057464 38.8071604,18.7735233 C38.8071604,11.9077684 34.294968,6.5 28.1953363,6.5 C22.0961041,6.5 17.5839956,11.9078597 17.5839956,18.7735233 C17.5839956,19.0687193 17.6002102,19.4009941 17.6316665,19.766591 C16.7794539,20.5641999 16.5845229,22.2958208 16.9365016,24.1349963 C17.31005,26.0868787 18.2070744,27.65852 19.4028917,27.8623161 C19.4480836,28.0258532 19.4950487,28.1994775 19.5453123,28.388215 C19.5880003,28.5485067 19.6342525,28.7240101 19.720743,29.0525124 C19.7909177,29.3183293 19.8419515,29.5087838 19.8926337,29.6925537 C20.2780848,31.0901687 20.5956118,31.8809688 21.1211674,32.477141 C20.8351318,33.9162539 20.6102668,35.6223631 20.5002029,37.0226773 C11.4199808,38.550452 5.5,42.8401684 5.5,48.2032483 C5.5,48.755533 5.94771525,49.2032483 6.5,49.2032483 C7.05228475,49.2032483 7.5,48.755533 7.5,48.2032483 C7.5,44.1216801 12.4756764,40.4724364 20.5180426,39.0490811 C20.6766064,39.3919193 21.0236028,39.6297773 21.4261538,39.6297773 C21.9784386,39.6297773 22.4261538,39.1820621 22.4261538,38.6297773 C22.4261538,38.4549991 22.4307902,38.2605459 22.4397128,38.0502142 C22.4523896,37.9745543 22.4564532,37.8964543 22.4509953,37.8171359 C22.5317988,36.3225064 22.802423,34.1657198 23.154954,32.5168609 C23.2317932,32.1574684 23.1050769,31.8019068 22.8525444,31.5701968 C22.8127011,31.4242897 22.7390309,31.285243 22.6308998,31.1651905 C22.3703931,30.8759629 22.1297721,30.2816604 21.8206536,29.1608212 C21.7723172,28.9855574 21.7229535,28.8013352 21.6544924,28.5420095 C21.568477,28.2153045 21.5214208,28.0367504 21.4779514,27.8735249 C21.3266635,27.3054455 21.2026764,26.8639132 21.0670252,26.4214089 C20.8871458,25.8346294 20.24613,25.5702298 19.7228577,25.79177 C19.6785018,25.7413096 19.6287605,25.6764347 19.5765789,25.5978452 C19.29525,25.1741419 19.0451258,24.5129271 18.9008522,23.7590618 C18.7555781,22.9999685 18.7404045,22.2664633 18.8432024,21.7244298 C18.8799851,21.5304818 18.9289867,21.3789013 18.9786204,21.281743 C19.4378935,21.1466452 19.7478341,20.6953655 19.6879096,20.201968 C19.6191885,19.6361425 19.5839956,19.1517361 19.5839956,18.7735233 C19.5839956,12.9404146 23.2889054,8.5 28.1953363,8.5 C33.1021852,8.5 36.8071604,12.9403355 36.8071604,18.7735233 C36.8071604,19.1958287 36.7619245,19.7574347 36.6740907,20.422809 C36.637081,20.7031721 36.7205093,20.9860971 36.9037162,21.2015232 C37.1545951,21.4965221 37.3203601,22.5400532 37.1768377,23.7034725 C37.0822742,24.4704295 36.875356,25.1554613 36.6204439,25.6074846 C36.5596272,25.715328 36.5009125,25.8008577 36.4500885,25.8619927 C35.9634328,25.768683 35.4586419,26.051306 35.3059368,26.5542807 C35.1727664,26.9929129 35.0531254,27.4338701 34.9171287,27.9738416 C34.8810343,28.1171537 34.667275,28.9848282 34.6084194,29.2136693 C34.3579282,30.187625 34.1639386,30.6960967 33.9533024,30.944524 C33.7267503,31.2120959 33.6187121,31.3397409 33.5379116,31.4349388 C31.6258766,33.6876666 30.5623083,34.5766614 29.0935893,34.8807039 C28.5527711,34.9926597 28.2051095,35.5218377 28.3170653,36.0626559 C28.4290212,36.6034741 28.9581991,36.9511357 29.4990173,36.8391798 C31.0373278,36.5207311 32.1637302,35.8215916 33.5542617,34.4041832 L33.5542617,34.4041832 Z" id="Combined-Shape" fill-rule="nonzero"></path>
</svg>
