<svg height="24" width="24" xmlns="http://www.w3.org/2000/svg"><path d="M21.489 13.926l-3.272 2.481c.054-.664.116-1.436.143-2.276.04-.89.023-1.855-.043-2.836a17.085 17.085 0 00-.184-1.467 12.537 12.537 0 00-.31-1.39c-.238-.862-.535-1.68-.9-2.349-.352-.674-.786-1.174-1.12-1.463a2.993 2.993 0 00-.414-.306l-.152-.093a.26.26 0 00-.275-.003.291.291 0 00-.1.388l.01.02s.11.198.258.54c.069.176.155.38.223.63.08.241.139.528.206.838.064.313.115.66.172 1.029l.15 1.19c.054.44.105.825.13 1.245.029.416.032.85.025 1.285.004.873-.063 1.76-.115 2.603-.063.853-.121 1.65-.173 2.335l-.005.11-.115-.118-2.996-3.027-1.6.454 5.566 6.66 6.394-5.803-1.503-.677z"/><path d="M2.503 9.48L5.775 7a45.502 45.502 0 00-.143 2.276c-.04.89-.023 1.855.043 2.835.043.488.097.98.184 1.468.077.485.196.982.31 1.389.238.862.535 1.68.9 2.35.352.674.786 1.174 1.12 1.463.172.144.31.248.414.306.1.06.152.093.152.093a.26.26 0 00.275.003.291.291 0 00.1-.388l-.01-.02s-.11-.199-.258-.54c-.069-.177-.155-.38-.223-.63-.08-.242-.139-.528-.206-.839-.064-.313-.115-.659-.172-1.028l-.15-1.19c-.054-.44-.105-.825-.13-1.246-.03-.415-.032-.849-.025-1.285-.004-.872.063-1.76.115-2.603.063-.853.121-1.65.173-2.334 0-.04.004-.074.005-.111l.115.119 2.996 3.027 1.6-.454L7.394 3 1 8.803l1.503.678z"/></svg>