<svg height="24" viewBox="0 0 24 24" width="24"><path d="M21.49 13.926l-3.273 2.48c.054-.663.116-1.435.143-2.275.04-.89.023-1.854-.043-2.835-.043-.487-.097-.98-.184-1.467-.077-.485-.196-.982-.31-1.39-.238-.862-.535-1.68-.9-2.35-.352-.673-.786-1.173-1.12-1.462-.172-.144-.31-.248-.414-.306l-.153-.093c-.083-.05-.187-.056-.275-.003-.13.08-.175.252-.1.388l.01.02s.11.198.258.54c.07.176.155.38.223.63.08.24.14.528.206.838.063.313.114.66.17 1.03l.15 1.188c.055.44.106.826.13 1.246.03.416.033.85.026 1.285.004.872-.063 1.76-.115 2.602-.062.853-.12 1.65-.172 2.335 0 .04-.004.073-.005.11l-.115-.118-2.996-3.028-1.6.454 5.566 6.66 6.394-5.803-1.503-.677z"/><path d="M2.503 9.48L5.775 7c-.054.664-.116 1.435-.143 2.276-.04.89-.023 1.855.043 2.835.043.49.097.98.184 1.47.076.484.195.98.31 1.388.237.862.534 1.68.9 2.35.35.674.785 1.174 1.12 1.463.17.145.31.25.413.307.1.06.152.093.152.093.083.05.187.055.275.003.13-.08.175-.252.1-.388l-.01-.02s-.11-.2-.258-.54c-.07-.177-.155-.38-.223-.63-.082-.242-.14-.528-.207-.84-.064-.312-.115-.658-.172-1.027-.046-.378-.096-.777-.15-1.19-.053-.44-.104-.825-.128-1.246-.03-.415-.033-.85-.026-1.285-.004-.872.063-1.76.115-2.603.064-.853.122-1.65.174-2.334 0-.04.004-.074.005-.11l.114.118 2.996 3.027 1.6-.454L7.394 3 1 8.804l1.503.678z"/></svg>